<mxfile host="app.diagrams.net" modified="2021-02-26T06:04:22.929Z" agent="5.0 (Windows NT 6.1; Win64; x64) AppleWebKit/537.36 (KHTML, like Gecko) Chrome/88.0.4324.182 Safari/537.36" etag="tdNdFxCNNIE8oaD4k1Mz" version="14.4.3" type="github">
  <diagram name="Page-1" id="9f46799a-70d6-7492-0946-bef42562c5a5">
    <mxGraphModel dx="1182" dy="1582" grid="1" gridSize="10" guides="1" tooltips="1" connect="1" arrows="1" fold="1" page="1" pageScale="1" pageWidth="1100" pageHeight="850" background="#ffffff" math="0" shadow="0">
      <root>
        <mxCell id="0" />
        <mxCell id="1" parent="0" />
        <mxCell id="oS_20qrr7N-xbOWo2OUr-1" value="" style="shape=image;imageAspect=0;aspect=fixed;verticalLabelPosition=bottom;verticalAlign=top;image=data:image/png,iVBORw0KGgoAAAANSUhEUgAABaQAAANgCAIAAABcEfhrAAAAAXNSR0IArs4c6QAAAARnQU1BAACxjwv8YQUAAAAJcEhZcwAADsMAAA7DAcdvqGQAAMPpSURBVHhe7P19jBVHnuh9Vo9b97r1uCUsa0ZIO7uLVtOSt0e9omXPvXT19V56/cfgkVvrP+ZqbFa7je4ze8YazcjW7ozkGd8W0koWWrnVlNu+gOnG2ANaeJrZi+y7fWgeyYKe5nG1sAEXVFHVLhcFLlTFFC6goKCoN3p/mREZGScyz/vJPHkyvx+FiojIyDxFnHyLX+VL3+8AAAAAAADy4t133yXYAQAAAAAA8oNgBwAAAAAAyBWCHQAAAAAAIFcIdgAAAAAAgFwh2AEAAAAAAHKFYAcAAAAAAMgVgh0AAAAAACBXCHYAAAAAAIBcIdgBAAAAAAByhWAHAAAAAADIFYIdAAAAAAAgVwh2AAAAAACAXCHYAQAAAAAAcoVgBwAAAAAAyBWCHQAAAAAAIFcIdgAAAAAAgFwh2AEAAAAAAHKFYAcAAAAAAMgVgh0AAAAAACBXCHYAAAAAAIBcIdgBAAAAAAByhWAHAAAAAADIFYIdAAAAAAAgVwh2AAAAAACAXCHYAQAAAAAAcoVgBwAAAAAAyBWCHQAAAAAAIFcIdgAAAAAAgFwh2AEAAAAAAHKFYAcAAAAAAMgVgh0AAAAAACBXCHYAAAAAAIBcIdgBAAAAAAByhWAHAAAAAADIFYIdAAAAAAAgVwh2AAAAAACAXCHYAQAAAAAAcoVgBwAAAAAAyBWCHQAAAAAAIFcIdgAAAAAAgFwh2AEAAAAAAHKFYAcAAAAAAMgVgh0AAAAAACBXCHYAAAAAAIBcIdgBAAAAAAByhWAHAAAAAADIFYIdAAAAAAAgVwh2AAAAAACAXCHYAQAAAAAAcoVgBwAAAAAAyBWCHQAAAAAAIFcIdgAAAAAAgFwh2AEAAAAAAHKFYAcAAAAAAMgVgh0AAAAAACBXCHYAAAAAAIBcIdgBAAAAAAByhWAHAAAAAADIFYIdAAAAAAAgVwh2AAAAAACAXCHYAQAAAAAAcoVgBwAAAAAAyBWCHQAAAAAAIFcIdgAAAAAAgFwh2AEAAAAAAHKFYAcAAAAAAMgVgh0AAAAAACBXCHYAAAAAAIBcIdgBAAAAAAByhWAHAAAAAADIFYIdAAAAAAAgVwh2AAAAAACAXCHYAQAAAAAAcoVgBwAAAAAAyBWCHQAAAAAAIFcIdgAAAAAAgFwh2AEAAAAAAHKFYAcAAAAAAMgVgh0AAAAAACBXCHYAAAAAAIBcIdgBAAAAAAByhWAHAAAAAADIFYIdAAAAAAAgVwh2AAAAAACAXCHYAQAAAAAAcoVgBwAAAAAAyBWCHQAAAAAAIFcIdgAAAAAAgFwh2AEAAAAAAHKFYAcAAAAAAMgVgh0AAAAAACBXCHYAAAAAAIBcIdgBAAAAAAByhWAHAAAAAADIFYIdAAAAAAAgVwh2AAAAAACAXCHYAQAAAAAAcoVgBwAAAAAAyBWCHQAAAAAAIFcIdgAAAAAAgFwh2AEAAAAAAHKFYAcAAAAAAMgVgh0AAAAAACBXCHYAAAAAAIBcIdgBAAAAAAByhWAHAAAAAADIFYIdAAAAAAAgVwh2AAAAAACAXCHYAQAAAAAAcoVgBwAAAAAAyBWCHQAAAAAAIFcIdgAAAAAAgFwh2AEAAAAAAHKFYAcAAAAAAMgVgh0AAAAAACBXCHYAAAAAAIBcIdgBAAAAAAByhWAHAAAAAADIFYIdAAAAAAAgVwh2AAAAAACAXCHYAQAAAAAAcoVgBwAAAAAAyBWCHQAAAAAAIFcIdgAAAAAAgFwh2AEAAAAAAHKFYAcAAAAAAMgVgh0AAAAAACBXCHYAAAAAAIBcIdgBAAAAAAByhWAHAAAAAADIFYIdAAAAAAAgVwh2AAAAAACAXCHYAQAAAAAAcoVgBwAAAAAAyBWCHQAAAAAAIFcIdgAAAAAAgFwh2AEAAAAAAHKFYAcAAAAAAMgVgh0AAAAAACBXCHYAAAAAAIBcIdgBAAAAAAByhWAHAAAAAADIFYIdAAAAAAAgVwh2AAAQr2/nOVJHku5QAACAtBDsAAAgnjNiJ7WcdIcCAACkhWAHAADxgoH6FVLLiWAHAADoCoIdAADEI9jRfiLYAQAAuoJgBwAA8Qh2tJ8IdgAAgK4g2AEAQDyCHe0ngh0AAKArCHYAABCPYEf7iWAHAADoCoIdAADEqx3s+Nqbn6oGNZI0uzQ/ac9VtBT0AwAAQKoIdgAAEM8ELKKpkUiHSs6MTafx7f19TwyMR+p7JAWdAAAAkCqCHQAAxKsRrVCTGknOjHlM75aqh2OCTgAAAEgVwQ4AAOLViFZI/V8OXndStLLa7PlKBDsAAEDmEOxAfepUlZTlpL8qAB0VbF/uAF6S1DtxDUlS+cKvrzk1lTP6cYHy9v4+T6l8ZXzgCT/b1z/wK9WmXFIVMvndcBYvlOBnBraqiXXaBx8RNIutdFKVNt59NJr8wn7lrwaCqlJZ5groX6AiBX0IAACQKoIdqE+dqpKynPRXBaCjgu3LHcBLkno7qKFStDIyux8a6N8+LvmyF7bQMQUvv7UcNlMtrRiHzgQBhTrtg48In/cRW+mkqjPqGIeplE+viGuYj45JQR8CAACkimAH6gtOVd1TWFIWEgMJIDk19n5qUiOpckY7LlAl7wdBfKrGTGq2vZfKJRWqiK10UlwbL8ARRlWsSvvykIoZnRR0AgAAQKoIdqC+uPN1UlYSAwkgOTX2frH10cpIjR0XiMuHwYVfDfSrqaZZs+1VZTTYYSqdFNcmNtjh59UNOJGFuynoQwAAgFQR7EB9wamqewpLykJiIAEkp8beL7ZeKq8vTjo1drEyLhCXL2+Nu5HEydRtH1x2EYYqYiudVHVGHeCIzDg+8ITfPvhlrEkmBX0IAACQKoIdqC84VXVPYUlZSAwkgOTU2Pv93sCnTo2kaONIjR0XiM17l1R4+reWGrmyo0r7Ukk/9zS4ECO20klV2ngxDiX49PDGGR37KJf8Eg8oBQAAmUGwA/UFp6ruKSwpC4mBBJCc2ns/NbV2cmZJJdkxkdqVTmqkTdMp6AcAAIBUEexAfbVP2b/25qeqQY0kzS7NV1zaTepUCnoYQOeZPVhPpQaDHVJj21om2AEAAHKEYAfqq3G630ikQyVnxqaTdx1158/Cc5CC7gXQeZ3ZfaWdGgx2RBPBDgAAkB8EO1BfjdN9NamR5MxIajjVGX4E3Qug89h9tZ/YRwEAgK4g2IH6apzuS/1fDl53UrSy2uykBhLBDqBrgu3L3e5IjSf2UQAAoCsIdqC+Gqf7Uu/ENSRJ5Qu/vubUVM7oD+DL+gn/pbL3/kI/G7z10DzbX+jH+5sxv58Z0O8CqNM++IigWWxlNAVvNzDvIwhfRlDxaoOa/4W6DezFmlc8Ov81qQnEveZAUvDtAOi8YPtytztS44l9FAAA6AqCHaivxum+1NtBDZWilZHZ/TF8//ZxyfuvMNTjfy+vX2RotbRiHDoTjPzrtA8+InzeR2ylk7xIR2UcxJvLinpEFhX/X2ikQfALlLeGoQ33v2Y1i0vBtwOg84Lty93uSI0n9lEAAKArCHagvhqn+2pSI6lyRnsAXyXvBwh8qsZMara9l8olFa2IraxMXjijMoBSWRO3qNh8vQbeYi1ejKPucmJS0L0AOs/swUhtJt2hAAAAaSHYgfqCU1V3mC0ptj5aGamJHdVb+TC+8KuBfmfM32x7VRmNUJjKypRqsKPyg+ovJyYF3w6AzmP7ah99CAAAuoJgB+oLTlXdYbak2HqpvL446dTYxSqjeitf3hp3B4qTqds+uHMkDCvEVjqp7m0sZlGRX6Mi30iD6AfVXk5MCr4dAJ3H9tU++hAAAHQFwQ7UF5yqusNsSb838KlTIynaOFITO6q3817EwdO/tdTIlR1V2pdK+pmgwRUcsZXRJM00K8ahRD+6Wr5uA3uxNW5jCZ69ygNKgdSxfbWPPgQAAF1BsAP1Baeq7jBbJTW1dnJmSSXZgYPalb2dgh4G0HlsX+2jDwEAQFcQ7EB9wamqO8zOdmow2CE1ttgbWzKdGEgAyWH7ah99CAAAuoJgB+oLTlXdYXa2E1d2AGgX21f76EMAANAVBDtQX3Cq6g6zSVlIDCSA5LB9tY8+BAAAXUGwA/UFp6ruMJuUhcRAAkhOdPuya87N3lNFSZI3Ux8a+PSRt4Yko5p5/OcM9w+M66Jv3H+ucqmsi3ml+kQXAAAA0kKwA/UFp6ruMJuUhcRAAkiOs31J/gfHvY3OFG/eX5WMinqoSrGy9uDW/VW7hmCHLgBJUisbqXeT/iIBoEMIdqC+4AjkDrNJWUicHwDJcbavyfkl+Rnd4m5WhjaW1x40slUS7AA6S61spN5N+osEgA4h2IH6nEMRKYNJf1UAOip2+4qt2T44Y/KP7b6w8+ysKmrWlR0qxmEQ7AA6JVjZ3L8KkLKf2FEASALBDtTHESjL+HaA5MRuX3aNuqbjpZNXdTngVppgh59REQ4rm2exfQgkIVjZ3IE0KfuJHQWAJBDsQH0cgbKMbwdITuz2ZWrUozqOfn5LFcVv//5RlSRfMWMQ7LADHNzGAnRWsLK5A2lS9hM7CgBJINiB+jgCZRnfDpCc2O3L1EhGvYRF8WIcF15XSfIVMxLsAJIXrGzuQJqU/cSOAkASCHagPo5AWca3AyTH2b5eOnlV1Uiy3zur0virjy7f+EAlydtxEBPsUAEO/+Ed+tkdBDuATglWNncgTcp+YkcBIAkEO1AfR6As49sBktPU9jXx2jr5OTm/tGvo+iU/HwqCHUE2RLAD6JRgZasYRX/tzU9VfY0kzS7NT9pzkVJOwRcBAJ1EsAP1cQTKMr4dIDnNbl/qaR3qJxT2UUhNsLKFQ+hGIh0q2XO1ksa39/c9MTAeqSc1loJvAQA6iWAH6uMIlGV8O0Bymt2+vDDH1fcJdtjYRyE1wcrmDqEbSfZcvZ/eLWU68hLz6wXfAgB0EsEO1Bc9Atk19o3r6h51lX9o4NNH3hqSjGrmsS7kNgryiL7kqN7WBQAd1ez29cy2f9ix++fyU5fBPgopCla2iiH0Xw5ed1K00pmr9xPBDgDwEOxAfc4RSPI/OO4dlkzx5v1Vyaioh6oUK2sPbt1ftWsIdiRBeriikwF0TrPb1/vHT/3Ztn+Un7oM9lFIUbCyVQyhnbiGJKl84dfXnBp7Lj0aL2/3HyIspyhXxgee8LNyDvMr1SZ8+E7p3XAWbwDvZwa2qol12gcfETSLrYymX6nHGwv53aSmcuGykID6LO8WG2VrWS0hqOkf2B782nYzvVj1+5RK8n9/or/fVF75XXlrX//28Wq/bcxy7F848uv5KfjuAKCTCHagPucINDm/JD+jx6SblaGN5bUHjRy3CHa0yfl2AHQQ21f76EOkJljZ9PhZDaHtoIZK0UpnLh0v8Mbz/sDejOS9fBAv0Mkf8JsYh84Ew/g67YOPCJ/3EVvpJC9wUCUOYi/czGvly1v9Gb1PUWEIP4gTfrSOTVT+PuH/PYhNlEuqpTc19r/gLsea10/SJviVghR8dwDQSQQ7UF/sESi2ZvvgjMk/tvvCzrOzqqhZV3boly4GCHa0LPbbAdARbF/tow+RmmBlc4fQjSR7rsrReJW8HwTxqRozqdn2XrLCB9HKyuRFEJwASs2Fe+0tpXe9GhWh8FLQsnKxcb+P5FWDd0t69rjfNnY5/u9gBWgqZlQp+BYAoJMIdqC+2COQXaOu6Xjp5FVdDriVctBTwQ4/IwfAoE5l0YrYbwdAR7B9tY8+RGqCla1iCG0XVYpWRmqcQX4kHw7pfzXQr6aaZs22V5XR4IKprEyV0YTKmriFx7ZvJdjhXQbSP/Ar9bNiXi8f/Lbxy/GSuhUouliVgu8OADqJYAfqiz0CmRr1qI6jn99SRfHbv39UJclXzBgEO+wAB7extCn22wHQEWr7IrWfdIcCSQpWtoohtF1USSqvL046NXaxcjQely+rh1aosb2aapo13j642CEMEMRWOskLK1hXSdT+ZVS+sr1fo2IQ1W9jMb+PWY5f37+1pOMpamr8fyGyHJ2CQEnlYv0UfHcA0EkEO1Bf7BHI1EhGvYRF8WIcF15XSfIVMxLsSEDstwOgI9i+2kcfIjXByhYOoX9v4FO7qJLTJq7GHo3H5r2Igycc/JtJTbT3n/3pCS5/iK2MJmmm+W2iC/cuqfCoJ2V4QYdA+DART5UHlEZ/f528xYZP36jy20aXE95lo2MfFb+en4LvDgA6iWAH6nOOQC+dvKpqJNnvnVVp/NVHl298oJLk7TiICXaoAIf/8A797A6CHS1T3a4LADqK7at99CFSE6xsevxsj6JrJ2eWVJIbR6hemWSKXHxRO8l5nBWC6eRvG3wRANBJBDtQX1NHoInX1snPyfmlXUPXL/n5UBDsCLIhgh0t4/wASA7bV/voQ6QmWNncgXQmU4PBDqmxNRGYaCR5J2Ph8zvqpXH7YR+SCHYAyDqCHaiv2SOQelqH+omkcX4AJIftq330IVITrGzuQDqTqcFgRxIpuO3F02D0RM0SDcQQ7ACQaQQ7UF+zRyAvzHH1fYId6eD8AEgO21f76EOkJljZ3IE0KfuJHQWAJBDsQH3NHoGe2fYPO3b/XH7qMpLE+QGQHLav9tGHSE2wsrkDaVL2EzsKAEkg2IH6mj0CvX/81J9t+0f5qctIEucHQHLYvtpHHyI1wcrmDqRJ2U/sKAAkgWAH6uMIlGV8O0ByEtm+vJdQqSc128qlmMo8YB+F1AQrmzuQJmU/saMAkASCHaiPI1CW8e0AyYluX197c0hqHttzQRVVg68MfKqK4tHdF6RGmumyFhvLsCsJdgDtUisbqXeT/iIBoEMIdqA+jkBZxrcDJMfZvlSkwySpqVFUNQGCHUDiWNl6F98dgCQQ7EB96ghEynLSXxWAjnK2L1O0M/4UnTH1jpJ6yaMolYO4hvwMhJV+a+8+l3BCr6vWJ0DHsbL1Lr47AEkg2IH6OAJlGd8OkBxn+4rm5eeGdy5KMkW7jSX2Io56leWSmdy7qvcJ0GGsbL2L7w5AEgh2oD6OQFnGtwMkx9m+VNEkVWMmqZ+SfjNzV9Lpa/fUJF/DwY7wsg5f71/bofpEF4AksbL1Lr47AEkg2IH6OAJlGd8OkBxn+zJFJyPpq294zyg1RZW8ebSmgh15uHvFiHQFkBRWtt7FdwcgCQQ7UB9HoCzj2wGS42xfJv/+xLzKqwaShr+8L8XVB2HNneU1v63ScLDDy4S1OaB6QxeAJLGy9S6+OwBJINiB+jgCZRnfDpCcDm5fXgxD35YSxjhiKyvuZOE2FqBhrGy9i+8OQBIIdqA+jkBZxrcDJIftq330IVITXdnsmnOz91RRkuTN1IcGPn3kLe+t0qqZxw9DOhdYqSBkru4xyxL1XegCAHQIwQ7UxxEoy/h2gOSwfbWPPkRqnJVN8j84fsXUSObm/VXJqKiHqhQraw9u3V+1awh2pE/6v+IrAIBOINiB+jgCZRnfDpActq/20YdIjbOyTc4vyc/o6nezMrSxvPagkVWUYEeinO8OADqCYAfqix6Bvvamd8HnY3suqKJq8JUB72UEyqO7L0iNNNNlzbopvb6mGheX6nxdANBRbF/tow+RmtiVLbZm++CMyT+2+8LOs7OqqFlXdtiP0BEEOxIS+90BQJsIdqA+5wikIh0mSU2NoqoJEOzovEgnA+gYtq/20YdITezKZteoazpeOnlVlwNupQl2+BkV4bCy6LzY7w4A2kSwA/U5RyBTtDP+FJ0x9Q7/PMGnThbCP5dI2Svo2IYX5egP/5LCmUVN1XobQPvYvtpHHyI1sSubqVGP6jj6+S1VFL/9+0dVknzFjEGwww5wcBtLomK/OwBoE8EO1OccgaJ5+bnhnYuSTNFuY/HCGMHFGla+XPJzUiNnEepnZQNUV723AbSL7at99CFSE7uymRrJqJewKF6M48LrKkm+YkY5ASHYka7Y7w4A2kSwA/U5RyBVNEnVmEnqp6TfzNyVdPpaeGJREb+IvQvWP60IziQIdjRE9bYuAOgotq/20YdIjbOyvXTyqqqRZL93VqXxVx9dvvGBSpK34yAm2KFOVfxzEX3WQrAjIepL0QUA6BCCHajPOQKZopOR9NU3vGeUmqJK3jyaE+yInDMQ7GhepJMBdAzbV/voQ6SmqZVt4rV18nNyfmnX0PVLfj4UBDuCbIhgR0LYUQBIAsEO1OccgUz+/Yl5lVcNJA1/eV+Kqw/CmjvLa35bxY5feOcPlcEMqZGzCPVTFQl21Kf6WRcAdBTbV/voQ6Sm2ZVNPa1D/UR3saMAkASCHaivg0cgL8Jh/jJi38lSGpCCim141X6uojGq4PwASE5i21eBgrnso5CaZlc2L8xx9X2CHVnAjgJAEgh2oD6OQFnGtwMkJ7p9qXdvP7bngiqqBl8Z8O7gUx7dfUFqpJkuxyPYAXResyvbM9v+Ycfun8tPXUb3sKMAkASCHaiPI1CW8e0AyXG2LxXpMElqahRVTRUEO4DOa3Zle//4qT/b9o/yU5fRPewoACSBYAfq4wiUZXw7QHKc7csU7Yw/RWdMfUR4255/Z54JdthRDysfNO8fGOj1sEj1PgE6jJWtd/HdAUgCwQ7UxxEoy/h2gOQ421c0Lz83vHNRkinabULl4MnLWu1gh2TsRxsR7AAawsrWu/juACSBYAfq4wiUZXw7QHKc7UsVTVI1ZpL6Kek3M3clnb52T03yuEGLmsEOaRw2tRv0JNUnugAkiZWtd/HdAUgCwQ7UxxEoy/h2gOQ425cpOhlJX33De0apKarkzWNR96bUv42FYAfQErPpkXo06S8SADqEYAfq4wiUZXw7QHKc7cvk35+YV3nVQNLwl/eluPogrLmzvOa3rRDEMUwIwwuA6BtcpC6MgHAbC9A0VrbexXcHIAkEO1AfR6As49sBktOx7csLXygqiGFdr2EmlUrRSh5QCjSOla138d0BSALBDtRX4wh0d3ltz0fTWw9efOqtc5IkI0Wp1JORPM4PgOR0f/uyrvzoUeyjkBpWtt7FdwcgCQQ7UF+1I9DHX9x+9mcXnvjxJ06SSpmkGyFhnB8Ayen69uVd4dHbF3awj0J6WNl6F98dgCQQ7EB9sUegj7+4/eTOMybA8czbQ9//6ZApyqR68Q7rKm60gfMDIDld2r78J3VovX1Zh2AfhdSwsvUuvjsASSDYgfqiR6C7y2vONR3feH1I6u0aaVDzfpYawY6U4yC9HXbh/ABIDttX++hDpIaVrXfx3QFIAsEO1Bc9Au35aNqOa0iKBjskSTPVPg7Bjs7g/ABIDttX++hDpIaVrXfx3QFIAsEO1Bc9Ar1w4KIT14gNdmw9eFG1DwVXZ9uvGChXvKYgLNmvXrTKUU4LL3hRKkmVX4rM3vbHZQvnB0By2L7aRx8iNaxsvYvvDkASCHagvugR6Km3zjlxjdhghzRT7QNeZMEKKTjXU3hBCr/GZCrz5ZIzg89bUmW99ynhPFVnb+3jMofzAyA5bF/tow+RmujK9rU3h6TmsT0XVFE1+MrAp6ooHt19QWqkmS6jS9RXowsA0CEEO1Bf9AhkBzu++5Oz33h96N7yqtSbSpXcYMf4QH8YP6gIK+hrKaLRh/A6C1/0YguvgVNbb/Z2Pi57OD8AksP21T76EKlxVjYV6TBJamoUVQ26ha8AQBIIdqC+6BFo60HvNpb+N86oCzqEZJ55O3wbi0rubSyxwY4wWmEmO9GHmiGHmAY1Z2/z47KH8wMgOWxf7aMPkRpnZTNFO+NP0RlTH+GfGAzoP40EpwherabPFPxmZTlz0HXeSYTPzBJW9drZRcqqfxcA0DqCHagvegTa89H0X//zb6/fWZb8n7877MQ4TIo8oNQ7TzCRBn0yYEINXpXKmSqVt04aYoSzBWrO3u7HZQ7nB0By2L7aRx8iNc7KFs3Lzw3vXJRkinYbi3cyoM9XvKwTpzCnDX6zSNaaxbT0sr11dpGy6t8FALSOYAfqix6B7i6vbTs09hf/NOJEN+wU/+pZ/2zAPyEwDygN/urhPVTUOk8QVlxEc843tGCherp1biHc2dv/uGzh/ABIDttX++hDpMZZ2VTRJFVjJqmfkn4zc1fS6Wv31CSffSJh5cPTDVVTpZnJ22cUohdOKrpFfRe6AAAdQrAD9cUegT7+4vaTO884AQ6TZJI00E2RJM4PgOREt69Wn3doD4Tqaqpx1qku0gUgSc7KZopORtJX3/C2WVNUyZtHqxa5MH8VUVPjmtn5cBbUEfkKAKADCHagvmpHoI+/uP3szy44YQ5JUplYpENOIGycQ4TfzsC+A3/wd++se/XIN3/0y9G5RTUVQDucvV8bzzu0B0J1NdU46yJdAXTAzfur245fkZ+67HNWNpN/f2Je5VUDScNf3pfi6oOw5k7FtahxkQtT54UwVC6uWUVeMmEtalDfgi4AQIcQ7EB9NY5Ad5fX9nw0/cKBi0+9dU7S1oMXpRhz9woSo76dgX0H+n74i75v/2nfHz3Z963vrf/RSeIdQPucvZ8p2hl/is6YekcYpTV/GA7L4cjJHyL199addHVV6xOgZTfvr24+Mr5/ZE5+2vGOzq1ssZGLYLsNb4ONbVaZDzd2/kBTCzsKAEkg2IH6OAJlmfp2HvmbPV6kI/Bv/vff2XT4M93id787N3tvx+lrJ6buqEQcBGiQs/eL5uVnw887jBsI6WcWSo0Mg9TPyga9r3qfAK1QkQ45rkleftrxDla23sV3ByAJBDtQH0egLFPfzkOvnej7+mM61NHX92//7cP2Vyangy+fvCpnhCrtOH1NT/DtH5lTC3n4zSGZKkU9wXdi6s72wRmTpKgn+Cbnl9QZJ5BLatPQhaBokqoxk9RPSXWed2j/pVeY+Eb4d1+CHUA8O9Kh2PEOVrbexXcHIAkEO1AfR6AsU9/OH+445t3AEvj+D/5qw74R3aJhiytrJ6buTM4v6bKvdrBj/8jcxoNj6neQJA30BJ+6xljSlqMT0Xnlg6TGJOdzgSxQK7YuWEUnI6mJ5x16wY7I5ewEO4B6opEOxcQ7WNl6F98dgCQQ7EB9HIGyTH07xyfmfv+1Y+rijqeffe7pn48d/fyWbtE9JpxxbHI+NlCiQiEqOVeU1J4qizLBF0kESpAQZ+9n8m0/79AJZkhNidtYgKjRuUW1n5eD2oZ9I//Tb2/qCZWkwbcOjLKy9S6+OwBJINiB+jgCZZn5do5Nzq/fOyz5dbvOHxq7oab2rtrXfUiNCnbEhkKkXnWLSlLUE3xmXpWkqCf41OcurvCQXXjUKqQL7fEiHObijYpnFg5IQcU2vGo/V9G4x3WwD9GjRucW5ahk9rrOpRk7Tl+T3fimw5+pVcXZn6upkp774NJffTj13f/pM/OEDkNd8fHrqwusbL2L7w5AEgh2oL4aRyD1NpatB3kbS9dwftCs2sEOc0WJ6lhpoCf47OtNXj55NTZQYhLXm+QA21f76MPeou5njO7Bjn5+y+w2txydODY5ryf4th2/or5olaIBi+fLl83sTrBDXbsxOL2gyzXZT+hQ7Htb1KerevQWvjsASSDYgfqqHYE+/uL2sz+78MSPP3GSVMok3QgJ4/wgTXY4Q73gRk/w7R66bkIhkmKvN9l0+LPYqbIoMxKQQQWBkoxg+2offZgmc9OHSs6eRGpe/HCq9j5KUuxUO9hxbHJ+ZmFZT0idHe+wIx2Cla138d0BSALBDtQXewT6+IvbT+48YwIcz7w99P2fDpmiTKoX7+juTen5uSWe84PeMji9UG0QYgYSW45OOMOMV05Nqy9aJWequsxb2qjZY/9qKsmph0NGTduOX7H/YixUh+sCWkIfNssEVdUWLRk9wSebvwpGSHr4zSFpoCf47KmSnH2FLGrn2Vm1cEm9G1RV8Q75/eWnvWdjZetdfHcAkkCwA/VFj0B3l9ecazq+8fqQ1Ns10qDm/Sw1wg0pRCK6++mdxPkBVDhjx+lrscEOc8e7em9ObKDEJOfSdPW3XKlUQ6Mu/i03aervw2qgaMc72L7aZ/pwYN+BP/i7d9a9euSbP/qlrLRqal7J9qK2R5WkqCf4ZE1r5D1WsfOaUIgkJzZXKLKj27BvxNndmZUNPYfvDkASCHagvugRaM9H03ZcQ1I02CFJmqn2cQh2dAbnB2iHc9G7E85QwQ417pJU7S79dbvOR6faF71LcsYk8rnZGe6qSIf6DeWn5M0Yku2rfaoPB/Yd6PvhL/q+/afeS7K/9b31PzqZnRWg7vVWr5yalrXCCRRKvfqvqSRFPcFn5lVJinqCTz7I2SLQEeq70AX0FL47AEkg2IH6okegFw5cdOIascGOrQcvqvah4B0E/QMDJqZQVu8dEN6rB8JS5LUFsW8msGMTJu9nyuazgtBF5z+9+zg/QNfdvL8qY7nYQIlJztBux+lrj7+n3xMpqdr1Js99cCk6b+0ATbPsSIdixzvYvtqn+vDRl972Ih2BR/74O5sOf6ZbtMe+0kGSE7AwV0moFBuw2HhwLHaqLE2tvbJCRpeMDEpsg7XPNJCIxL47AIVGsAP1RY9AT711zolrxAY7pJlqH/BCCVYMwTl1MCcT9lmFlS+X4s41YhtLJli890lhZac/vfs4P0D+mHCGiphEAyVm7Coper3J+r3D1aaqBaqxq6Tf3liUNs7yhYl3sH21T/XhQ6+d6Pv6YyrSIR5++GG7Y2cWluXr2Hl2VgUX5GvSE3zyJapvU72dVBroCb7a4YzaoRDkjFrZdMH3tTeHpOaxPRdUUTX4ysCnqige3X1BaqSZLsezTwyQCPXV6AIAdAjBDtQXPQLZwY7v/uTsN14furfs/RXUVKrkBjvGB/rDs4WKOII+/42GG8ILK3wxV1fYpyAmb1d6BW++RD69+zg/ABz2+Db2epOXT15VA+P/w4FRaaOnVZL6bwdPVdBVaInqw0f/X7/wbmAJ/K//7P+2Yd+IbhGEM+R7iQ12qFCIpAbfTorCcjZYFekwSWpqFFVNFRUnFUhCva8AAFpBsAP1RY9AWw96t7H0v3FGXdAhJPPM2+HbWFRyb2OJDTd4AQVzvUVsuKF2jME+BTF5uzJYRCKf3n2cHwAts+9YsZl7W9i+2qf68PjE3O+/dkxd3PH0s889/fMxJ6IBtM/ZYE3RzvhTdMbUR3iHf8U/CYg9u3DOFjz2TbJoSvXvAgBaR7AD9UWPQHs+mv7rf/7t9Tven0z//N1hJ8ZhUuQBpXJmEIYW9JUU5mzBq1I552Si9omDFZAI21pzhdO9yk5/evdxfgC0IxrvMJEOybN9tc/04bHJ+fV7hyW/btf5Q2M31FSgg5wNNpqXnxveuSjJFO02ITn46xMLxZwYOGcIpjJydoEmVf0uAKANBDtQX/QIdHd5bduhsb/4pxEnumGn+FfPeqcEzl8//HMDr6pUCi690K2scwet4uQjECyzr1SyT0dkcbrazJTEp3cb5wdAm+x4hx3pEGxf7aMPkRpnZVNFk1SNmaR+SvrNzF1Jp69Zz+5xgxbeSYU5uwiqg7w0DpvaDdAE9V3oAgB0CMEO1Bd7BPr4i9tP7jzjBDhMkknSQDftggKdbXB+ALRPxTsm55fsSIeIbl8det5h4xrfm9Vu2bW9ouoiXQCS5KxspuhkJH31DW+bNUWVvHks6o8d/p85zOZjb0dBnmBHJ8R+BQDQJoIdqK/aEejjL24/+7MLTphDklQmFumQ0whbtWstCnS2wfkB0BHnZu9t2DdiRzqEs3117nmHjWt8b1a7Zdf2ip3rCqAOZ2Uz+fcn5lVeNZA0/OV9Ka4+CGvuRK9FDeMYZvPxAiD6zEPqdKWXsy4G7c6G1uvUt6ALANAhBDtQX40j0N3ltT0fTb9w4OJTb52TtPXgRSnG3L2Stq6d1qeP8wMgOc72ZYp2xp+iM6Y+wt8plfVtceHuSf3t2BfEbsOqUtkbRGkxod1aLcOyV3Sm+r+M/hVM3l6amtQZ1fsE6LCOrWyV20/FJmMmhXfOhpU8oLRl7CgAJIFgB+rjCJRlfDtAcpztK5qXnw0971ANhsKogsp5lTqyYCqlriLYIOUqY6eGWppKe2pcXv7tbJAjUL1PgA7r/srmbcjJbEh5x44CQBIIdqA+jkBZxrcDJMfZvlTRJFVjJqmfkmKed1gRXwgCC5XjIqvSalo5Y4XaLaWkqUp7alzeXVrHqD7RBSBJXV/ZvM0uia2oANhRAEgCwQ7UxxEoy/h2gOQ425cpOhlJ9Z53aMcXgiBHbLDD50ceVNGeMUZ8y3DJklOV9nKq5e2ldUykK4CkdGllU9uN0tmtp0DYUQBIAsEO1McRKMv4doDkONuXyTf/vMNy+BffMBLhVeqxUVipBVGKimBErJiWJustVuXs5Vgf5v0Kpt4TLK1jVG/oApAkVrbexXcHIAkEO1AfR6As49sBktO57cuLNZRK+u+/YVTDCzsoQYTBiz4oVjgiLFlqtQyW632mXnLFcsy85iGLkaV1CvsopIaVrXfx3QFIAsEO1McRKMv4doDkdG77KlsXVhQL+yikhpWtd/HdAUgCwQ7UxxEoy/h2gOR0bvtqP9gRXnrh6/D1F8lhH4XUsLL1Lr47AEkg2IH6okcgu+bc7D1VlCR5M/WhgU8feWtIMqoZ6gvvrrfVGSOp3tYFAB3Vue2LKzuAxLGy9S6+OwBJINiB+pwjkOR/cPyKqZHMzfurklFRD1UpVtYe3Lq/atckqYcGEs3+qgQ7gK5h+2offYjUsLL1Lr47AEkg2IH6nCPQ5PyS/Iwek25WhjaW1x6keNwi2AGg89i+2kcfIjWsbL2L7w5AEgh2oL7YI1BszfbBGZN/bPeFnWdnVTHgj9vLwVsCghG81GrhKwXUawv8cvi2AvMWgf6BAT2Pv5BwAVVuY3cXYVWYOSp+N6k0TYLfs26D9n9Vv71aWLAof/7wE6Jivx0AHcH21T76EKlJZmWzDs3t8A7rjS2n8ZY5wo4CQBIIdqC+2COQXaOu6Xjp5FVdDkQq/aG+OoLHHMvN+YTXLJhmnWSUS37OX4gJJthhhYqlGdFPCmezJvqLjWQrP6JuA10nWT/nt2viVzWTwtbeL1i1vSf22wHQEWxf7aMPkZroyva1N71nhz2254IqqgZfGfhUFcWjuy9IjTTT5Rg1jtodlM6nZJf6anQBADqEYAfqiz0CmRr1qI6jn99SRUfljBXHcimo8bw/tFfMUD9o5o/1Q94M9kJM3q6s5C1Bf45WWSNz+oXYxdr5eg3a/1XtRYVNarT3xH47ADqC7at99CFS46xsKtJhktTUKKqaOHWOwh2SzqdkV82vAABaRLAD9cUegUyNZNRLWBT7yR3OI0srj+VByCEMPZghvtUsnGrYCzH56mcJ0SVU1sicfiF2sXa+XoP2f1V7UWGTGu090sOVnQygY2psX3eX1/Z8NL314MWn3jonSTJSlEo9GQH2UUiNs7KZop3xp+iMqY/hHdM9FTeTBpUVF19a5UiNdwQPbsutPA2ouKVXagLebNZxP1ye+Qh/asUdsnlQ67sAgFYR7EB9zhHopZNXVY0kFc6wkzRQ72pRyY6DqMO5PjB7x29zJuBXeTUqZx3m7Vk0Z2p0Fke43IC3TH3SYH6N+MXa+UYahLW+as0qW4UqFqV+Lf88p1p7j+l2AB1Xbfv6+Ivbz/7swhM//sRJUimTdCP42EchNc7KFs3Lzw3vXJRkinYbS+xR2Dp8q5tVpUKfTCjx5xvhPOFygtpwDmvhlS2t0xVrdnPmUvkb9K7q3wUAtI5gB+pr4Qg0Ob+0a+i6LoS847f/Jw5PcHz2TySENyV6yA+ne7x57Klh3jvi6wZReqLQ08NlxiyqSr5ug/Z/Vau9biRlHlAKdE3s9vXxF7ef3HnGBDieeXvo+z8dMkWZ1JvxDnt/1Unso5AaZ2VTRZNUjZmkfkr6zcxdSaevWX+bkaN5uDUEm4Z9iBdyEPdrwoZe0Tm025uVyVdsa1Lw54lrWbnAWi17n/oudAEAOoRgB+rr3BEoP0fl7OD8AEhOdPu6u7zmXNPxjde9RxvaNdKg3v0stXeGXdlV1vjQtn4f9lFIjbOymaKTkfTVN7xnlJqiSt48StVghxPL8PgRD39CK8EOM09cy8oFSm3Vlr3P/QoAoBMIdqC+zh2BUjgqy0fYnNOOTOnMr8r5AZCc6Pa156NpO64hKRrskCTNVPsqau8MuzKAqfGhbf0+7KOQGmdlM/n3J+ZVXjWQNPzlfSmuPghr7lQEKL0DtDoq+7EMtf57lbFbgrTx6722lQ3sbcfkreWE4YyqLfXJQZ2WPU99C7oAAB1CsAP1de4IlJ+jcnZwfgAkJ7p9vXDgohPXiA12bD14UbUP+CMmHdf0BjCaP3gJy17RmWrvNk3eXpqaZIudxc9UPBPRFyzJvmNOmmoxv0+9D49gH4XUdHJlC1b8Kg8o9Vf/yk3F51RJMX5jjNzSG8zpla25wk+MLsfJ9zZ2FACSQLAD9XEEyjK+HSA50e3rqbfOOXGN2GCHNFPtNRmSmDGNJ3aIYiqrDWaCvPxbsTRH7OySCYZL3vAprFRL8odUZi7FntdMsvLqGY31sI9CanpkZbM3KGjsKAAkgWAH6uMIlGV8O0ByotuXHez47k/OfuP1oXvLq1JvKlVygx1uLKFytCMlTVVWCS6YfFxkwhI7u13pFbwYhyynoi4oSFaLzOt/dKhWzEVjH4XU9MjKVrExQmFHASAJBDtQH0egLOPbAZIT3b62HvRuY+l/44y6oENI5pm3w7exqBS5jcWjAgV+fMAJH5irKyLBhap5e2mO2FnsyuAjzQd6gga1f59waqPYRyE1PbKy2RsjNHYUAJJAsAP1cQTKMr4dIDnR7WvPR9N//c+/vX5nWfJ//u6wE+MwqdoDSoP4gTXaMVkvjqBy9ljIii5IdeUYyUQjKsXOYs0cTvcqTWBDTzcf7lWZefWsFctpDPsopIaVrXfx3QFIAsEO1McRKMv4doDkRLevu8tr2w6N/cU/jTjRDTvFvHrWCxEoVhRCl/w4g/AeWajDCNZUa95SSQcdIktzRWfxqmKeiWhaWk9hrPf7BNM9VT7fxj4KqWFl6118dwCSQLAD9XEEyjK+HSA5sdvXx1/cfnLnGSfAYZJMkga6aYZ4wQ4VuUgZ+yikhpWtd/HdAUgCwQ7UxxEoy/h2gORU274+/uL2sz+74IQ5JEll6pEOcxWHUu1aC4IdyD9Wtt7FdwcgCQQ7UF/0CGTXnJu9p4qSJG+mPjTw6SNvDUlGNUtKeFe5rcppfVONe4TqbV0A0FE1tq+7y2t7Ppp+4cDFp946J2nrwYtSdO9eyRCCHcg/VrbexXcHIAkEO1CfcwSS/A+OXzE1krl533vzoop6qEqxsvbg1v1Vu6YNzZ6mN9WeYAeAeGxf7aMPkRpnZVtaffCf3qv1eB2Vrt1e0jOge9hRAEgCwQ7U5xyBJue904LoMelmZWhjee1B545bBDuqcr4dAB3E9tU++hCpcVa2LxeWn/jxJ/eW10y6K2lpVaUFP0mltPx4KoPP2SkWdhQAkkCwA/XFHoFia7YPzpj8Y7sv7Dw7q4oBP6xQDp70bwIM1rP9g9vNw6pSWeYKxNyNboUqgpms1wo4mmrcG2K/HQAdwfbVPvoQqXFWtlk/2PFAl6r67yNf/snOM3sHrddFx9/02raEFpsL7CgAJIFgB+qLPQLZNeqajpdOXtXlQKTSD1uoA314yPcqdRDDVEpdRVzDClK4zKRwOX4cI7Z9U417Q+y3A6Aj2L7aRx8iNc7K1kiwQ0U6pNkPj03qqg6rcQKDEDsKAEkg2IH6Yo9ApkY9quPo57dU0VE5Y8UhXwpeuMELNoSBDavSPjuoca4QTJJZKpYd276pxr0h9tsB0BFsX+2jD5EaZ2WbvVMn2GEiHa+WL9W9AKRVvX2OkRp2FACSQLAD9cUegUyNZNRLWBT7yR3OI0srD/lBkCM22OHzIx6qWONcIZhEsANAq5774NLmI+Mvn7y6fXDmxNQds0+rsX2pt7FsPdgrb2PpGvZRSI2zsplgx8LSWvSpHHakY+b2cmWww5wYqDMRT3imYpF2WjjZniWc7jdQi/UahM0b/aicY0cBIAkEO1CfcwR66eRVVSNJhTPsJA3Uu1pUsuMg6qxAxxXCY71XqQ/slScAQir89uZcIMpMCpfjnzDEtm+qcW8w3T6w78Af/N0761498s0f/XJ0blFNBVDXzfur63adPzF1Z+fZ2e2DM5uPjG88OCablfqpti/Hx1/cfvZnF2SY5CSplEm6EXzV+hDoOGdlU8GOtQe/+8+Hxza9cfZfJsJLUE2k47+ULy0sr018uTi7sKyneYKzBfm34qykGnN24Z1TVJ5SmElW3lpskLWalUuVSygEdhQAkkCwA/W1cASanF/aNXRdF0LesbxU0n+6CM8f/HiDLzzS64qgla6IOeeoOD/wG0m5gQeU1m/cG9S38z/+v3/a98Nf9H37T/v+6Mm+b31v/Y9OEu8AGjQ4vbDp8Ge6EFARkNi938df3H7SHyap9MzbQ9//6ZApyqR68Q5rR1QAsX0IJMFZ2Uyw42//27hkNr1x9teXvHiHfU2HTF1afSD5mYoX0AYbad2/hwTnErqV1945U7G3d5OXjGoWBDbCEyFfzNlOzrGjAJAEgh2or3NHIPuQj85Q384jf7vHi3QEHvnj70QHbwBiHRq78Xz5si4EVAQkuve7u7zmXNPxjdeHpN6ukQY172epsSdMeSeZxsdF+xBIiLOymdtYllYf/E0Q73j9xBd2pEMsrXjBjmuxwQ6fCkTExB/C0Ibk/PaNBjv0DMFssTMWCzsKAEkg2IH6OncEav/EWpZgq31m0FTjXqW+nYdeO9H39cf0f7Sv7+GHH+akAWjQ9sEZ89psQ0VAonu/PR9Ny7jITtFghyRpptrHqbEnbH8n2ZQ0Pi7ah0BCnJXtX60HlJp4h0om0iHur6xJTY1ghwijEjbTygtVuLmAvSgr7y2xVOo3ZyYyyZmxWNhRAEgCwQ7U17kjkHv2gPapb+cPdxzzbmAJfP8Hf7Vh34huAaCm58uXD43d0IWAioBE934vHLhoxksqxQY7th68qNqHvEGQx751zhvfKN6QJyzp2GwwS/VYrdPC28f6twr6pcjsbX9cK6J9CCTEWdnsYIcw8Q470iEW/WDHv96JC3ZUbjMRZquWzc6c3rjz6LLe6Ewzf157qeEG2NlNsDewowCQBIIdqI8jUJapb+f4xNzvv3ZMXdzxf3r2uad/PlbtZcAAHJsOfzY4vaALARUBie79nnrrnApnmBQb7JBmqn3AG++o8Ys/onHCvmYIZI+FrHz8Awu9JVXWe58SzlN19tY+rkXRPgQS4qxsKthhxzWWVh8c+OSaXSPuLatgh/2AUqSNHQWAJBDsQH0cgbLMfDvHJufX7x2W/Lpd56N/pgZQzYZ9I5sOf+a8d1ZFQKJ7PzvY8d2fnP3G60P3llel3lSq5AY7xu2L4CvCCurvuEGMwppk/5lXRP/S6zVwauvN3s7HtSrah0BCnJVNPbNjcWXt/sqa/FTp3rKX7qq0tCr5i9fuSrPKt7HECrcfX+c2ErCjAJAMgh2ojyNQltX+dmS0Jud2ugAgINvFK6em1UuLJueXou+dXbfr/M37q9Hta+tB7zaW/jfOqAs6hGSeeTt8G4tK7m0sscGOMFphJjvRh5qjqZgGNWdv8+NaVXsfBXSQs7LJZv4f/+u5J3/8yZ/slHTm3w2c+fcDZza9ceY7Pznb/5Oz3/3J2f/wppdkg31696dLK5XXeyBd7CgAJIFgB+rjCJRltb+dFz+ckpGbjOV0GcDvfjc6tyjbxZajEzP1/pYb3b72fDT91//82+v+Fe9//u6wHeCwU+QBpd7fhE2kQV9YYUINXlUk+uDPYgpxwtkCNWdv9+NaVHsfBXRQdGVbe/BAXcphJ3WJh52cG1uQPnYUAJJAsAP1cQTKsrrfzs6zs+t2nT8xdUeXgWLbcfra+r3D+0fmdLmm6PZ1d3lt26Gxv/inESe6Yaf4V896wQSP9YBSP+7hVYVPN9StrLiIFn/VRbBQPd0OXkRnb//jWlF3HwV0Citb7+K7A5AEgh2ojyNQlqlv59jk/N+/8c4f/N0761498s0f/VJdnG+cmLqzbtd5HlkKLK6svXzyat0LOozYvd/HX9x+cucZJ8BhkkySBropOIIgRaxsvYvvDkASCHagPo5AWaa+nb96/ad9P/xF37f/1HsB7be+t/5HJ514x+T80s373mMUATSu2t7v4y9uP/uzC06YQ5JUJhbpCC/i8HXu0ouEVetDoONY2XoX3x2AJBDsQH3RI5Bdc272nipKUm8xUPmHBj595K0hyahmifAuuo7eY155IbfRVOPeoXr70Zfe9iIdgUf++DubDn+mWwDFttjGM3rV9qULle4ur+35aPqFAxefeuucpK0HL0ox5u6VwqvRh0BnqZWN1LtJf5EA0CEEO1CfcwSS/A+OXzE1klGXDKioh6oUK2sPbvnvMtDl9DQVv8hJsOOh1070ff0xHero63v44Ydr9zxXeaAg9o/Mbdg30vh9Kw61fekCWkIfIjVqZSP1btJfJAB0CMEO1OccgdSrPaLHJPWaRl343e+W1x506bhVxGDHH+445t3AEvj+D/5KBni6RRyZuvPsrC4AeTSzsLzl6MSmw585t3Q1RW1fuoCWqD5UL/R1klTqRgAAAJ1GsAP1qbNSXQjE1mwfnDH5x3ZfiAyn7ciCyYcvAND3oLsVXstSSeqi96hbCwzmst504Giqcc9Q387xibnff+2Yurjj6Wefe/rnY7UfRzo5vyTDjOfLl9u5wh/IrBNTd9bvHd5x+pout0ptX7qAlqg+jO1G+hYAACSHYAfqiz1PtWvUNR0vnbyqy4FIZVywQ/6tCGJYbcqloEW1gIRp7LVRi/HjGLHNm2rcM8y3c2xyXkZ3kl+36/yhsRtqag2LK2vPly9vPDimLtUB8kRW73Yu6DDM9oWWqT6M7Ub6FgAAJIdgB+qLPU81NepRHdWuI6ic0YQbrLwTbwiuudC8mIQ9l8NaSNikWvumGveM2G9HmZxfqnvtxu6h6zy/A6imxvaFBqk+jO1G+hYAACSHYAfqiz1PNTWSUS9hUewndziPLK2MLFREGVSIw4tseLmKKz1qxiOail801bhnSA9XdnKFbcevbDk6QTgDuTezsFz71q3W1Ni+1NtYth7kbSx1qD6M7cZqfQsAANA+gh2ozzlPfenkVVUjSYUz7CQN1LtaVLLjIBWRjLJ7b0oQgohMqBWPMJO8uerdmdJU455hur2al09e3XhwjHgHcmz/yNy6XefNM4M6qNr29fEXt5/92YUnfvyJk6RSJulG8Kk+jO3G2EoAAICOINiB+qqdp9YwOb+0a+i6Lti8OIOvVNKhB1NjLujwIxCaV2eCFFHWpGA5DT2gtH7jntHItyODwG3Hr+hCdTMLy5uPjPMID/SQm/dXny9ffvy90cHpBV3VUbHb18df3H5y5xkT4Hjm7aHv/3TIFGVSvXhHjX1aCtL+dNWHsbup2EoAAICOINiB+qqdpyILGvx2Gnzrys6zs+t2nT8xdUeXgWzbPjjzyqnp5F4qFN2+7i6vOdd0fOP1Iam3a6RBzftZaoQbUohEpP3pqg9lx6IydpJK3QgAAKDTCHagPnVWqgvdJCfituBKkHhNNe5hHf92TkzdkRFI5LXBQBFFt689H03bcQ1J0WCHJGmm2sdJO9xQKe1P7/g+CgAAoBEEO1Afp6pZlsS3Mzm/9NwHl3jMBxDdvl44cNGJa8QGO7YevKjah4Ib9Oy758KgrL5lL6DCs+E9fbHhWjs2YfJ+pmw+KwhddP7TG5XEPgoAAKAugh2oj1PVLGv221lcWdt0+LNDYzd0GegdN++vbjt+Zf/InC4nL7p9PfXWOSeuERvskGaqfcALJVgxhDAK4asMVehJVr5ccmbwxTaWTLB475PCyk5/eqMa2UeNzi3KfokAKwAA6CCCHaivkVNVdEsL38652Xvrdp1Pc8QItO/Y5Pz6vcMvn7ya3BM6oqLblx3s+O5Pzn7j9aF7y94Q3VSq5AY7xqu88dqLQiiqxpoUXljhi7m6IjY2YVd6BW++RD69UQ3uo7YPzmw8ODazsKzLAAAA7SHYgfoaPFVFV7T27UzOL23YN9LgqzqlMY/wQHdtO35l/d7hY5PzupyW6Pa19aB3G0v/G2fUBR1CMs+8Hb6NRSX3NpbYcIMXUDDXW8SGG2rHGKzGYd6uDBaRyKc3qvF9lOyRZL/EC6EAAEBHEOxAfY2fqiJ9LX876kWzjfwdVcYeGw+OPV++nOZf1AHbobEbXbnHIbp97flo+q//+bfX73gbzp+/O+zEOEyKPKC0HHMjiYkteFWRcIM/iynEsQISYVtrrnC6V9npT29UU/uo/SNzz31wSRcAAADaQLAD9alTVVKWk/6qErO4svZ8+fLGg2P80RWFEt2+7i6vbTs09hf/NOJEN+wU/+pZL3rgsR4R6kcevKpSKbj0QreyIhOajmpUCpbZVyoFy/QCFrI4XW1mSuLTG5POPgoAAMBBsAP1qVNVUpaT/qoStvPs7OPvjeoCkKRzs/d0rqtit6+Pv7j95M4zToDDJJkkDXTTLvCCHSpykRFp7qMAAAAMgh3IOfX6BvsC+GgNhHRII33CnSxImqxjr5yaXr93eHRuUVd1T7WB+sdf3H72ZxecMIckqUws0mGu4lCqXWuRq2AHO2oAANAygh3IMzlR3nxkfP/InPxUJ83RGijqVQh2n0h+99D1bcev6DKQvMHphcffG81OOLLGQP3u8tqej6ZfOHDxqbfOSdp68KIUY+5eSVuugh2yU+K9UQAAoDUEO5BbKq6hLoaXn5K/PL/k1BDvsL1yalrGmZPzSzLglNHmul3n5Wf6779AYY3OLXbllSs1tDNQh9JOH8ruaMO+Ed4GBQAAWkCwA/lkRzoUyf/v3hn5l6sLuky8I4569eP337+0e+g6PYP0Ze0+KYId7WuzDyfnlx5/b7TB92QDAAAYBDuQQ9FIhxKNbhDvUOwe2D8yx9UcgEKwo33t96HsoJ774BI7agAA0BSCHcihzUfGT0zd0YVKMoyXqbrgk5ZOTXHI4GHH6Wsb9o3IT10FpGh0bvGVU9O6kEkEO9pHHwIAgK4g2IEcqha/ODd7b+PBMfuKDxntS8voNSC5N7OwbJ7KMTgd3toDpGbH6Wvr9w5n/PGTDNTbRx8CAICuINiBfNp5dvblk1d1wXdo7Mamw59N3rqvywWOdIjFlbVGnsohzbilBR03OrcoG+OWoxMzC8u6KqsYqLev430oO666+y4AAACCHcit58uXD43dUPntgzNSHP4yfEJH0SIdg9MLLTz6Ub0KgUcDorNOTN3plTunCHa0r+N9GH1PNgAAQBTBDuSWjO03Hf5MBvnPly+b4fo5/4mkMoYvSKRjZmFZRpWPvzcqaXRuUdc2Q/pKxhXOZTJAQUQH6naN7ENUUZLan6j8QwOfPvLWkGRUs0wbH+jv6x9wb/srl2Iqm2wcUH2iCx3yyqlp4h0AAKA2gh3IMxmor987bK7vUGRMsmHfSBEiHftH5h5+c6j9p3LIiELGFbIcXQaa16PjUmegLvkfHL9iaiSj/l8q6qEqxcrag1v3V+2axtSJGqSoqd+kC8EOsd1/T7bs5HUZAACgEsEOILdmFpY7NcLk4R1omXpCR4/eDOUM1NXQOjp0lw3Nrlxee9DS8J5gR3P2j8wVIWwNAABaQ7ADyInB6YWMv8UTBbTz7Oy6Xed3D13X5V4TO1CPrTHRHMk/tvuC/MdV0eLdBKKUyl65XNJFvxyW9GS3eVjTPzAQxhfCZqadF30olaS6v7/fVFYLSli1scuv0FRjLbYPAQAAkkawA+htN++vykhSPZVDMi08hRRIyLbjVzYd/qy1h8VkROxA3a5R13S8FHmoTaTSiw1UCQmYCIIdjbDy5ZKfkxo7DGJmCcIZ4Sd4lXpmyVohkDDwEZJqd1HW8h1NNdZi+xAAACBpBDtQRD16RX2sLUcnni9fPjF1R5dTIR3YqRtkkGM5eJ5C7EDd1KhHdRz9/JYqOipm9EICkVCDFzFQTAQhiBr4IYSQzCo1YUghaFm5WKn1C9ZyTJ1kwtlt1qKiy3c11ViL7cOO41Y7AADgINiBnIs9yU7hzDvfdpy+xqMBUQSxA3VTIxn7mRH2kzucR5Y6UQlPWGMiB1bUILZ9NL5Q2Uxq/UJF9EHNVzF3BWtRYYuKJViaaqxJP1R0RTJG5xbX7Tq/f2ROlwEAQOER7ECeydjj4TeHdMGSwpl3Eo5Nzj9fvixJl7tKBhXr9w7zdEDYZK2YWVjWhVxwBuovnbyqaiSpcIadpIF6V4tKlVuHF5aoCAmYEEE4xY4aSN4JIXg1JjpiXQwSRDu8WpW1l6MCE6VStVhH2Dh2+Y6mGmumc5I2Ob+0Yd9I7z4gBgAAdBbBDuSZOvfVBUs6Z96dsriypq6kUE/lyM79I4fGbqzfO5yzwS1aI6vBlqMTsormLP7VwkBddju74sfbXoBA8cMEfpRAWJEI3cKKImgmiOGr8oBSE3GQdhXRB28+tYQYVuPY5VdoqrGWWrBDSOfLSpinGxUBAEDLCHYgzwanFzYd/kwXLD0X7Hjxwyn5v+hylnAnC4S6zEdGmPl7Pm6aA/UmeAGOqtGLqHL8o0lTknIf3ry/mvIzjAAAQDYR7ECeySnv5iMxf3DM+N/95GQ9O5dvALXNLCw/98Glnn7lSg3ZDHZ4F1XUupai0rjzfA1b7RhIU42rymYfAgCA3CPYAWTI4PTCtuNX1u06f2jshq4C0D1ZGqhHb2upS83SeFwkEQQ7AABAVxDsADLh3Oy9x98bzdpTOZoivzm3yiNnGKi3r7t9yHuyAQAoLIIdQCbMLCz3+o0AMqLYeHDsxQ+ndBk5dWxyXr7o/D2eIxbBjvZ1tw+3Hb8iqyvxDgAACohgB9AFMwvLO8/O5m+4KP+jLUcnZHShy8gXGTHKl/v4e6PZfFxuEgh2tK/rffjKqemNB8d4mjIAAEVDsANF1MW7LY5Nzj9fvvzwm0MyaMzlHxsXV9bkP7h/ZE6XkRfnZu+t3zv88smrBbmmQyHY0b4s9KHs8zfsGynUqgsAAAh2IM9k1B37DsJunXm/+OFUTz+VA0U2s7B8bHJeFwqDYEf7MtKH52bv6RwAACgGgh3Is81HxjMV7ODvikBvIdjRPvoQAAB0BcEO5Fm1+7RTOPOeWVjePXSdp1cIQjw96ub9Vf4YzkC9ffQhAADoCoIdyLMN+0bSD3bYT+Uo4GX/Dul/+RYYM/ccWXXVEzp0uaiiA3W7RlZsVZSkVnKVf2jg00feGpKMapaI8YH+vv6BcV0KlEsxlU027jTVJ7qQDTtOX+O5QgAA5B7BDuRZtTPsRB9Q+nz5Mk/lsMmgYt2u88V5f0evW1xZe/HDqfV7hwnVCWegLvkfHL9iaiSjtnQV9VCVYmXtwa37q3ZNWpqKXxQ32CHfl+yUiHcAAJBvBDuAdhHXqEuGzTK0YPDcE14+eTWvrwpqgTNQV1eKRYfu0l125fLagy4N7wl2NEpddLbj9DVdBgAAuUOwA2iRDG/kRJnT5QYNTi/wBBP0nNiBemyNuV5M8o/tvrDz7KwqBuzIgsl7t5copbI/xa3wWpZKUqenW6wFBnP1DwxUiV801bjDYvswC1S8I/Yh1gAAIAcIdgBNm1lYlnH7ul3n5Sd3ZwA5FjtQt2vUNR0vRR5uEqmMC3bIvxVBDKtNuRS0qBaQMI29NmoxfhwjtnlTjTsstg8zgiuYAADIMYIdQNMWV9Z4KgdyY8fpa0c/v6ULqBQ7UDc16lEd1XqvckYTbrDyTrwhuOZC82IS9lwOayFhk2rtm2rcYbF9CAAAkDSCHSiiZh9QOji9MLOwrAvohNG5RZ1D98i3sOnwZ1uOTrB6VxM7UDc1klEvYVHsJ3c4jyytjCxURBlUiMOLbHi5iis9asYjmopfNNW4w6QfKrsCAAAgDQQ7kFu7h66/+OGULlRq8MxbRoCykMffG5XE4LyznvvgEo/w6K4dp6+t3zvMCylqcwbqL528qmokqXCGnaSBeleLSnYcpCKSUXbvTQlCEJEJteIRZpI3V707U5pq3GGmczLuxNSdLUcnuGQPAIDcINiB3No+OFPtCo5GzrxlEPjwm0M8lSMhiytrMq547oNLktFVSNcrp6a5oKOuFgbqk/NLu4au64LNizP4SiUdejA15oIOPwKheXUmSBFlTQqW09ADSus37rBeCXaIFz+c2nhwjHgHAAD5QLADuSWnrZEXImiNnHnLOJBT3qRtO35ly9EJ4h3IrB4aqGdWb/Xh9sGZjQfH1DuGAQBATyPYgdySgXS1S/SjZ96D0wuvnJrWBaRIhhYEldLBdRwtyMxAPbgeQwuuBInXVOPE9VawQ8hOicMBAAA5QLADubX5yPiJqTu6UMnc3iLDbPNUDslwiQHySj2hg3hHs3puoJ5B9CEAAOgKgh0otC1HJ54vX64WEwFygFeutIOBevvoQwAA0BUEOwBkxbnZe5UvsEC7RucW1+06vzv2eZloAAP19vV6H3KfHQAAPYpgB4CsOPr5rfV7h49NzusyOoFHLbaDYEf7eroPF1fWNuwbOTR2Q5cBAEDvINgBIENOTN0h3oHsINjRvl7vw3Oz99btOl/tcdcAACCzCHYAyBYZWqzfO8yfUlszs7DMTSsdpAbqpPaT7tDeNDq3uGHfyI7T13QZAAD0AoIdyKfJ+SU5N9UF9Br5+rj5ogX7R+bW7x1mSNZBzoid1HLSHdqzZI/04odTvLELAIAeQrAD+XRu9t7Gg2O6AOTdzMLylqMTmw5/Njq3qKtQGAP7Djz6/9i37tUj3/zRL1kBAAAAFIIdyKcTU3c2HxnXBSDvdg9df+XUNH92LqCBfQf6fviLvm//ad8fPdn3re+t/9FJ4h0AAACCYAfy6dDYjefLl3UBvezm/dWXT15lGA/EevSlt71IR+CRP/7OpsOf6WlIzOjcIjslAAAyjmAH8mn30PVtx6/oAnqZjCieL1/ecnSCoQUQ9dBrJ/q+/pgOdfT1Pfzwwzl4QEb2vXzyKjslAAAyjmAHgB6w7fiVjQfHbt5f1eVik36QDnnl1LQuo8D+cMcx7waWwPd/8Fc8mzkdsg1uOvwZOyUAADKLYAeA3rB9cIbnsIhjk/Pr9w7zhA4oxyfmfv+1Y+rijqeffe7pn48d/fyWnoaEyU6JICwAAJlFsANAz5hZWNa5onrxw6nH3xsdnF7QZSCIf/XtPLdu1/lDYzd0LVKxe+g6wQ4AALKJYAcA9IwTU3e4oAMAAACoi2AH8mlyfknnAAAAAAAFQ7AD+bRh3wjxjnzbcnSiCM8mODY5z6UcQE+Qg86JqTu6AAAAuo1gB/Jp3a7z3Eedb+dm78m3vH9kTpdzR71yZf3e4dG5RV0FVCErCU+06bpjk/OyU5KfugwAALqKYAfyqW/nOZ1Dfp2bvbdh38jOs7O6nCPqkZPbjl8hZodGyKqS48BfD8l9EBYAgB5CsAM5NLOwLANFXUCuTc4vPf7eaM6ufbh5f3XDvhH+PozGEezIjnOz9+QAxNcBAEDXEexADs0sLD9fvqwLAJB3BDsyZXJ+6dzsPV0AAABdQrADAIDeRrADAADAQbADQK704kMuBqcXnvvgEm9dQct2nL7GfU8AAAA2gh0A8mP/yNzGg2M9FO9YXFl75dT0+r3DjFSBXJLd0csnrxLKBAAgfQQ7AOTKK6emNx4cm5xf0uUMG5xeePy90efLl3nlCpBXiytrz31wacvRCeIdAACkjGAHckgGuj0x1kVCtg/ObNg3kv11YHRukecsAEWw7fiV3rroDACAHCDYgRx65dT0jtPXdAGFtH9k7tDYDV0AgG57+eTVTYc/0wUAAJA8gh3IIV5MgMzimiMkgcvZegLfEQAAaSLYgRzacnSCxz0ia0bnFjcd/uzlk1d1Geic7YMzknQBAAAABDuQS5uPjJ+YuqMLwO9+1/X1Ycfpa+v3DnPBERJCsAMAAMBBsAM59Hz58szCsi6g8GRl2LBvpIuBhm3Hr2w5OsE6ieTsHrr+4odTuoBeILuFwekFXQAAAAkg2AEg/ybnlzbsG+nWn755BQOStn9kTgbPuoBecGLqzvq9w9xxCQBAcgh2ACiEm/dXNx4c46/fyCUZM/MKqp5zbvbeul3nubsNAICEEOwAUBQ376/uHrquC0mS0YsMY3QBAKoYnVvcsG+Et7QAAJAEgh0A0DEzC8tbjk5sOvyZjGF0FQBUt7iypnMAAKCjCHYgb27eX+WP6uiK/SNz6/cOczcBAAAA0HUEO5A3xybntxyd0AWgukNjNzp49fjiytqLH05xQQcAAACQBQQ7kDe8lQAN2j44w93yyAeuaMuHHaevPV++zI0tAAB0BMEO5I2cLL5yaloXgJr2j8xt2DfS8iiRMQky4sTUnc1HxnUBPUt2KVuOTkhi3wIAQPsIdiBvtg/OSNIFoJ5DYzfW7x1u4foO9YSOm/dXdRnoHoIdebLt+JWNB8fYtwAA0CaCHcibHaevHZuc1wWgAc1e2aFeufL4e6OD0wu6Cuiq0blFWSF1Ab3vlVPT6bwnGwCAHCPYAQBNGJxeWLfrvAxFuM4c2TE5v7Rh34guAAAAgGAHADRlcWWNJ0Eia2YWlp8vX9YFAAAAEOwAANuxyfkdp6/pAtAjbt5f3Xb8Ck95yKuZhWWdAwAADSPYAQChyfmljQfHXj55VZf9YeTRz2/pApA9sopuPjK+f2ROfhLvyJ/RucX1e4dPTN3RZQAA0BiCHcgbzgjRJhkubjw4tu34lcWVtWOT8zLMePHDKT0NyBgV6VC3VslP4h25pHZEPHsbAICmEOxA3vTtPKdzQKsWV9ae/v9+vvHgGAMMZJkd6VCId+SVfLOyO9o/MqfLAACgHoIdyBU5xV+367wuAG149X+Z/r8eu8ygEZkVjXQoxDvyanRu8ZVT07oAAADqIdiBXOH9iwAKYvOR8Wp37Um9TNUFAACAQiLYgVyRU/xNhz/TBQDIr2pXcFS74gMAAKBQCHYgV+T83n6PBtCgxZW1V05N7zw7q8uVZPS48eDY6NyiLgPZEI13EOkoDp7GDQBAbQQ7ABTd4PTC4++Nbjt+JfpHcmP/yNz6vcOMIZE1dryDSEehbDk68dwHlxZX1nQZAABUItgBoNBeOTXd4CtX1Nsf+WsqskbFOybnl4h0FMriytrz5ctbjk4Q7wAAIBbBDgCFdvTzWzUu6HAcm5yX8aQuAJlxbvbehn0jRDoKaNvxKxsPjjW+EwMAoDgIdgAA0IS+nedI7STdj+iQQ2M3uLgDAIAogh3IlXOz9/gDF2rjOaNokzN0JzWbdD8CAAAkiWAHcmXzkXEeqYBq1CtX1u0636l4x8zCss6hSIIR+xVSs4lgBwAASA3BDuTKxoNj3LWOWOqVK1uOTnQwQvHcB5e2HZchHIqFYEfLiWBH0o5NznMQBABAIdiBXNmwb2RyfkkXgICsFet2nd8/MqfLHbK4srbl6MTz5cvcMF8oBDtaTgQ7kqZeGtXI66UAAMg9gh3IFTmNZtiJWAk9zEXWN97+WDQEO1pOBDtSQLwDAACFYAdyhdeCoiteOTXNJUXFQbCj5USwIx3nZu+t23X+6Oe3dBkAgEIi2AEgh0bnFl/8cEoXgI6qHez42pufqgY1kjS7ND9pz1WQFPz3kTjeTQYAAMEOAHmz4/S1dbvOy09dBjrKBCyiqZFIh0rOjM2nd0t9TwyMO5VZT8H/HQAAIHEEOwDkx+jc4qbDn0nq1MtlW3Dz/ipvQ8i3GtEKNamR5MzYWLIDHAQ7AAAAaiHYASA/jk3Od/2CjhNTd9bvHR6cXtBl5E6NaIXU/+XgdSdFK6vNXi8R7EArzs3ee/nkVV0AAKAwCHYgP2YWlrv493zAODY5v27Xed6GkFfBiN0dyUuSeieuIUkqX/j1NafGmbFc6tNK7/o10biG/Ax4bfzK8vZ+v6J/4Fe1luM2i5+3MqkPdfK/GlDzyOLL/qRxvZC+vq3loGWp9ERQdFPQdUgVL8kGABQTwQ7kx86zs/zxqoCy+RC+c7P31u8d3j8yp8vIkWDE7o7kJUm9HdRQKVpZbXYrrBAba3Aq+/r6t49Lvrw1ElywZwmaeYGJGpVOcj7Lz8sH6RhKpE15qx808ZZcJXripaDrkDZekg0AKCCCHciP7YMzknQBBTCzsCzn7pmNcJ2bvcfDO3IpGLG7I3lJalIjyZnRD1goJh4RiTXEV1bmay3Hu+7DvyIjttJJccv3r+MIYxnhZR0+c71JsORoCv7v6I5tx68898ElXQAAIO8IdiA/XvxwavfQdV1A3u0fmVu/d5hXriB98dEKP8XWRyvdGi9qoC7N+NVAvwoWxMUa4iutfJ3leDehRIIdptJJ1T7ryvjAE15kQ2YJP86kipbRFHQdumZmYVnnAADIO4IdyI/ny5e5a6AgXvxwqruvXEGRBSN2dyQvKbZeKq8vTjo1dtG7HMO9qcSKQXgXa6jKagGIIB+zHJkUXIsRxiZiK50U+wvoND7wRJWbVuzfKiYFXQcAAJA4gh3Ij5dPXuWugYKYnF/SuR6xuLK2fXCGu+XzIRixuyN5Sb838KlTIynaOFLjRRY8/VtL+ooM64aU0lYTQdDPH3VvGDH56HK8Sf4TQz3BFRyxlZEU/QVMjYmPeLGSALexAACALCHYAQCJW1xZe+6DSzwdMB+CEbs7kldJTa2dnFmSTLHRhzohieRS8N9H98m+aNPhz/gLAQAgxwh2AOgBxybnc3Cr+bbjVzYeHMvm62PQuNQDFu2kBoMdUmOLvbGlA4lgR6bIfnX93uHB6QVdBgAgXwh2AMi0m/dXtx2/8vh7o/n4C+TLJ69uPDimC+hNeQx2pJQIdmTNiak76/cOH5uc12UAAHKEYAeA7FJ/eHzl1HSe7v7guvFe11PBjmwlgh0ZJHukx98b5Q47AED+EOxATsiJGtfi5ox8p5uPjPO1ImsIdrScCHYAAIDUEOxATpybvcfdAQBSQLCj5USwAwAApIZgB3LixNSdzUfGdQHoEa+cmuZu+Z5DsKPlRLAj+7ifBQCQGwQ7kBOHxm48X76sC+hNMux//L3RQr2s5NzsvfV7h2Xt1WX0AjViJ7WcdD8ik14+eXXb8Su6AABALyPYgZzYPXSd87PepV65UsyXApybvbdh34iswLqMzGPE3jK6Lvtkb7zl6ATHUwBADhDsQE7sH5mTpAvoKerqBjm3LtQ1HbbJ+aUN+0akH3QZ2caIvWV0XU9YXFl7vnx5y9EJbmkBAPQ0gh0AumxmYZnnVjCo6CGM2FtG1/WQFz+c4mVYAICeRrADAIAmMGJvGV0HAABSQ7ADQNoWV9a4ZQO9ixF7y+g6AACQGoIdAFI1OL3w+HujPP2uhqOf39p8ZLywTzDJPkbsLaPretfk/JLOAQDQIwh2ICdkCM1TDzJOvqBXTk2v23WeR8nW9fLJqxsPjhHvyCZG7C2j63rUiak7suvmijwAQG8h2IGc2LBvhL87Zdwrp6a3HJ2YWVjWZdS0fXCGtTqboiN2u0YGhKooSQ0OVf6hgU8feWtIMqqZp1zq6+vrHxjXRd/4QL9Ulsq6mDOqK3QBPeXo57fW7x0m3gEA6CEEO5ATD785xJ/BM45Lb5q1e+j6K6emdQGZ4YzYJf+D41dMjWTUvkhFPVSlWFl7cOv+ql1DsAO95djk/Lpd53l5FgCgVxDsQE5wAg0gHc6IXV19E90F3awMbSyvPWhkN0WwA1l2bvYe9yECAHoFwQ7kgQw2Nuwb0QVkxo7T145+fksXgLyIHbHH1mwfnDH5x3Zf2Hl2VhU168oOFeMwCHYAAAC0iWAH8mByfun58mVdQAaMzi1uOvwZT+joLJ7fkRGxI3a7Rl3T8dLJq7occCtNsMPPqAiHlc2h2K4DAABIAsEOAB224/S19XuHudS5s2T8vGHfCL2aBbEjdlOjHtVhX9P0279/VCXJV8wYBDvsAAe3saCHcO0eACDLCHYA6LAdp69xQUcS1O1a0r26jC6JHbGbGsnYb6zwYhwXXldJ8hUzEuxAL1tcWdt4cGzb8Su6DABAxhDsAICecfP+qowuzJMg0BXOiP2lk1dVjSR1WYedxl99dPnGBypJ3o6DmGCHCnD4D+/Qz+4g2IGeIHukLUcnth2/wsu2AAAZRLADPW9g34E/+Lt31r165Js/+uXo3KKuRYrkfFfnkDzpbYId3dXUiH3itXXyc3J+adfQ9Ut+PhQEO4JsiGAHesXiytqWoxOSiHcAALKGYAd628C+A30//EXft/+074+e7PvW99b/6CTxjpTtH5lbv3eYbkdxNDtiV0/rUD8LjmBHLi2urB0au6ELAABkBsEO9LZHX3rbi3QEHvnj72w6/JmehoTNLCxvOTohHU6kA4XSSrDj6vsEOwTBDgAAkBqCHehtD712ou/rj+lQR1/fww8/zJl0Oibnl9bvHeZhmV13YuoOtxGlrNkR+zPb/mHH7p/LT10uMIIdAAAgNQQ70Nv+cMcx7waWwPd/8Fcb9o3oaUjY5PySzqF7tg/OyDrPd5GmZkfs7x8/9Wfb/lF+6nKBEewogkNjN9gjAQCygGAHetvxibnff+2Yurjj6Wefe/rnY7z2H0Wz8+zshn0jFa/5QJIYsbeMrisC9SAn9kgAgK4j2IGed2xy/uE3h+QEet2u8zwjLTkzC8syqNYFZIyMLmT9Z3SRDkbsLaPrCuLo57fW7x0enF7QZQAAuoFgR3Gpk05S+kl/AT3l2OS8jKVfOTWty8geHt6Rmt7dkLuOrisOddQgAgsA6CKCHcWlTjpJ6Sf9BfQIGT9vO37l8fdG+RsdoDhbNKnZpPsReUekAwDQXQQ7iis46bxCSi314on+/pG5V05NL66s6TJQeL24IWcEXQcAAFJDsKO4gpNOd0BOSi5xoo90nJu9t39kThfQaWzILaPrAABAagh2FFdw0ukOyEnJJU70kY7J+aXH3xvdPjijy+goNuSW0XWFdWLqzo7T13QBAIBUEOworuCk0x2Qk5JL2T/RV0/oYJCcA/JVbjw49uKHU7qMzsn+hpxZdF1hqT2SHF90GQCA5BHsKK7gpLNiNE5KNGX8RP/Y5Pz6vcM8oSM3ZHSx+cg479DpuIxvyFlG1xWZHFm2HJ3YdvwKhxgAQDoIdhRXcNLpDsgbSV9781M1e40kzS7NT9pzkYKeyaKXT17llSv5I4OKmYVlXUCHZHlDzji6ruBUvIOLBwEA6SDYUVzBSac7IK+bGol0qOTM2HQa397f98TAeKS+8+ndkvqg8BODGrdlWynoliwanF7gr21AI7K8IWccXQc50HCsAQCkg2BHcQUnne6AvG5SMzaSnBkznKKhjcIFOwA0KKcbcrnU1z8wrgsJYR8IAABSQ7CjuIKTTndAXjfJXH85eN1J0crWFt6lVMRgx+D0ws37q7qAAlhcWdt8ZHx0blGX0arohvy1N4ek5rE9F1RRNfjKwKeqKB7dfUFqpJkuZxHBDgAAkCsEO4orOOl0B+R1k8zlxDUkSeULv77m1FTO6IcPytv7+zyl8pXxgSf8rJxf/0q1kXNtrfRuOIsXcfAzA1vVxDrtg48ImsVWOqnyg9xMsHzvJhdla7li9kZT0OddJoPeV05Nr987fG72nq5CMewfmVu36zzfe5ucDVlFOkySmhpFVZNJBDuQNvWKFiKwAICEEOworuCk0x2Q100ylx3UUClaGVm4HzXo3z4u+bIXttBxBy/vxA5qRhzqtA8+ouLpG9FKJ9lLsDO/Guj34jKVbbzfoUrQpE4K+rybBqcXHn9vdNvxK1zWUUzqnTsnpu7oMprnbMimaGf8KTpj6iP8+EJZdjMeE2mwwrhlv2Jct9AVFUVprFvZ0QppomrDthXNSiWprlhY/8AAwQ6kjwgsACA5BDuKKzjpdAfkdZOasZFUOaMVLKiW94MgPlVjJjXb3kv+GKBapZOiH+Rl+vvl3D8IaoSXdfj0tSTNpaBbuubm/dUN+0ZkuKvLKKQTU3cef2+UZwS2zNmQo3n5ueGdi5JM0W5jkR1SEOTwgg5OrCEIXvi7LV0nqhXLpX4RLCyYM2gbLt+rDD4pbOAHPYLqxFTvChTXobEbRGABAEkg2FFcwUmnOyCvm2LnilZGauygQ1zeiyaoSzZ+NdAfE3popr2qlJP4apVOin6QZPr6+58Igxrhx7Wegj4H0MOcDVkVTVI1ZpL6Kek3M3clnb5m/wW7bF9MIQUdmPBCEIo/1YlDRIt+oVzyLxLx8kGV1zKMiwTLtz40aOir+GUSorpCF4DAscn5zUcSXvkAAMVDsKO4gpNOd0BeN8XOJZXXFyedGrtYGXSIy5e3xt2B4mTqtpezdf9ajDA2EVvppOgH6Yx/+q8u7rCW02oK+hxAD3M2ZFN0MpK++ob3jFJTVMmbR7PjC0FkIoxQVIQivOrwVhS7qJp5sQ4/zFEqm/m8RmYOgh0AAKBYCHYUV3DS6Q7I66bf814x4FZGFxWpMXGEannvsgv/b5lbS41c2VGlfamkn3tqP2sjUumk6AdVfkoYVQn0yG0sg9MLW45OcMMCamD1aJazIZv8+xPzKq8aSBr+8r4UVx+ENXeW7d4u+yFUP8BgAhMm5uDVVEQfKkITVtHLWDewlEp+3MPjLV9HO7ylqawd1AgbeNMJdgAAgBwh2FFcwUmnOyBvJKl5aydnllSSiVDUrexOCnomJTtOX1u/d3j/yJwuA3G2Hb/y8smruoAGdG5D9uIO/rNC/QiqikqosIPwpvjRBy8ioQTREM2eI4hT2HkRLMwKZNjBjnBpPKAU2cHzswEAHUGwo7iCk053QN7LqcFgh9TY2n0SR+MptRP90bnFTYc/23J0YmZhWVcBVai3P247foVLPBrUuQ25Mu5QAKntA9HTnvvg0vbBGV0AAKBVBDuKKzjpdAfkvZy4skObnF/igg40bnFlbcvRCe54alDnNmSCHUAME4HVZQAAWkKwo7iCk86K0Tgp0cSJPjJrcWXtxQ+nBqcXdBnVdW5DJtgBxLt5f3XL0QniHQCAdhDsKK7gpLNiNE5KNCV6oj85v6RzAJKU6Iacb3QdGqcisNyMCQBoGcGO4gpOOt0BOSm5lNCJ/uT80qbDn/EXMCAdCW3IRUDXAQCA1BDsKK7gpLNiNE5KNCVxor9/ZG793uEdp6/pMtAJiytro3OLuoBKSWzIBUHXAQCA1BDsKC510klKP+kvoBNeOTW96fBnDErRcYPTC+v3DvMIj1gd35CLg65Dy27eX+VuTQBAUwh2FBcnnenreJ9zMzOSc2xyft2u8/JTlxFg59kyug4tO/r5rQ37RgjuAwAaR7CjuDjpTB99jt5ybvbe+r3DxDscNTbku8trez6a3nrw4lNvnZMkGSlKpZ5ceOwD0Y79I3Prdp2X/ZIuAwBQE8GO4uKkM33t97mc6nFnAdIk4wpZ63QBvmob8sdf3H72Zxee+PEnTpJKmaQbFVv7+0AU3KGxG+v3DhPvAAA0gmBHcXHSmb52+nxmYXnL0YnH3xsl2AF0V+yG/PEXt5/cecYEOJ55e+j7Px0yRZkUF+8ol/r6B8Z1oVXNL2R8oL8Dn9uKdvaBgHJscp7LzQAAjSDYUVycdKav5T5X1+6+cmp6cYXr4YEui27Id5fXnGs6vvH6kNTbNdIgcj9L43GKGi07EjFJScv7QAAAgGYR7CguTjrT11qfL66sbTt+hQs6kAXc0iKiG/Kej6btuIakaLBDkjRT7QMEOwAAAJJCsKO4OOlMH32Onnbz/uqWoxOSCn6FUXRDfuHARSeuERvs2HrwomofCOMUktNKZX+Sd6tJUBFODKbarGBHOJPVMKjsHxgIWppZ/IxU6waJh0zYB6KzZF90aOyGLgAAUIlgR3FFTzrtmnOz91RRknoSmMo/NPDpI28NSUY18/jn4c5Zsjq7jjktLzbVh7oA9CAZWjxfvrz5yPjN+6u6qniiG/JTb51z4hqxwQ5pptoHrDiFFtTIvxU70GhLw0ySTDBT+FSOsNLfLZvKcKqebM2dHPaB6KyZheWNB8dePnlVlwEAsBDsKC7npFPyPzh+xdRIRg1mVNRDVYqVtQe37q/aNeps2TkNJ9gRS/qtouuqODY5v2HfiJzD6TKQMS9+OCUDjMJe3xHdkO1gx3d/cvYbrw/dW/b2n6ZSpVrBDn9H6vNrrMiEz2rpCiZ5s4Q7Xan1ClIZzmcWEs04+aQ0uA8EGifnKrI72nb8ii4DABAg2FFczknn5PyS/IyehspphF25vPagkVNVgh2xnD6Pkt6WM7YN+0Z4Qgcy7sTUHZ0rnuiGvPWgdxtL/xtn1AUdQjLPvB2+jUWlqrexhHGKiuCEtSOtEYmILsQjtQQ7UBBy6Nx8ZJx4BwDAQbCjuGJPOmNrtg/OmPxjuy/sPDuripqcIQd/gVSn5gbBDkdsnxujc4vr9w7L6Zq6pgZANkU35D0fTf/1P//2+h3vaqw/f3fYiXGYVPUBpSbO4O1DKyIOQbCiRiTCTPL2xXqvGwY+wkp//2xaOhknn5Ta+0CgZYsra7yPFgDgINhRXLEnnXaNuqbjpcitsG6ldy7tnyP7GXVabWURMn0+sO/AH/zdO+tePfLNH/1ydG5RTRVF/ms50CvMhmzcXV7bdmjsL/5pxIlu2Knmq2eDQHF/qWSCG5rej+qKmL2qWUi4GPcOGF1V5QGluqWdT0q06wAAABJCsKO4Yk86TY16VMfRz2+povjt3z+qkuQrZvTPpOUcWZ1RW39CJNjhUn0+sO9A3w9/0fftP+37oyf7vvW99T86acc7gJ6z4/S1Qv1NVW3IuhD4+IvbT+484wQ4TJJJ0kA37Zbwco+uie06AACAJBDsKK7Yk05TIxn1EhbFi3FceF0lyVfMSLCjYarPH33pbS/SEXjkj7+z6fBnugXQg2RfsX7vcHHiHWpD1gXLx1/cfvZnF5wwhySp7FykQ+1ojSb2st6ciV+6UUe1rgM665VT0+pJZACAIiPYUVzOSedLJ6+qGknqsg47jb/66PKND1SSvB0HMcEOFeDwz6X1tdQEOxyqMx967UTf1x/zOsj38MMPS6VuAfQm2Sds2Deyf2ROl3NNbci6UOnu8tqej6ZfOHDxqbfOSdp68KIUI3evpEnvjX3d3yXX6Dqgg2RfJHsk4h0AUHAEO4qrqZPOidfWyU85b9g1dP2Snw8FwY4gGyLY4VB9/r/accy7gSXw/R/8lZyT6RZAz5L9g6zJRXjuTFM7T9joOqRm/8jcul3nK/42AwAoGIIdxdXsSad6Wof6idaoPn/xf7708PZfqIs7nn72uad/PmY/GwXoXTML3utIcq/ZnScMug5pkmPr+r3DBdkvAQCiCHYUV7MnnV6Y4+r7BDvaYfr82OS8nIFJft2u84fGbqipAHpCsztPGHQdUsadLABQZAQ7iqvZk85ntv3Djt0/l5+6jOZxog/kABtyy+g6AACQGoIdxdXsSef7x0/92bZ/lJ+6jOZxoo/iODF1Z8vRiZv3V3U5R9iQW0bXAQCA1BDsKC5OOtNHn6NQth2/svHgWP7iHc6GvLT64D+9N+K8bjaart3mcnr2geim3UPXJelCFWoVJSWRdBcDQIoIdhQXx5700ecomu2DMxsPjuXstnlnQ/5yYfmJH39yb3nNpLuSllZVWvCTVErLj6duq1kKi30gukh2RI+/Nyo7JV2Oo1ZRUhJJdzEApIhgR3Fx7EkffY4C2nl2dtvxK7qQC86GPOsHOx7oUlX/feTLP9l5Zu/gtC6L8YF+/druomAfiO66eX9148GxGnukYBWVBqSOJTZ8AN1CsKO41LGHlH7SXwCA3uRsyI0EO1SkQ5r98Nikriok9oHoupv3V7ccndg/MqfLlYJV1B2uk9pJbPgAuoVgR3Fx7EkffQ7kgLMhz96pE+wwkY5Xy5fqXgCSb+wDkQWLK95tZWJg34E/+Lt31r165Js/+uXo3KLUBKuoO1wntZPY8AF0C8GO4uLYkz76HMjB80qdDdkEOxaW1qJP5bAjHTO3lyuDHeWSvo3Fu6FFKZXVJJsz1cxl5/1MWTcM741xF+w1K5WkToqxy4n8JtWX4E9uDvtAZMfAvgN9P/xF37f/tO+Pnuz71vfW/+jk6NxisIq6w3VSO4kNH0C3EOwoLo496aPPgQ37RqpdQN4rnA1ZBTvWHvzuPx8e2/TG2X+ZuKUnWJGO/1K+tLC8NvHl4uzCsp7mCUIM8q8OLcRxp5rAhJ2XTBDk8MITpjJoWS75Oa9ZWGWyJi//VvusmCU0jX0gsuPRl972Ih2BR/74O5sOfxasou5wndROYsMH0C0EO4qLY0/66HNgdG5xw76RnWdndbkHORuyCXb87X8bl8ymN87++pIX77Cv6ZCpS6sPJD9T8QLaIJTgXz1RNYLgTrUCEGHervQKXsgivCjD51XFzmvlnc+qs4SmsQ9Edjz02om+rz+m1+2+vocfflitn/4qWjFW/9qbn5pJ1ZI0uzQ/ac9FMinoIgBIG8GO4uLYkz76HBCT80sbD47VfgFkljkbsrmNZWn1wd8E8Y7XT3xhRzrE0ooX7LgWG+zwqcBCxXUVFmtqbMDCrvTaBsEOZ3mx8zp567PqLKFp7AORHX+445h3A0vg6f/L/33DvpFgFQ0H6o1EOlSy52oljW/v73tiYDxS3/sp6B8ASBvBjuKqcey5u7y256PprQcvPvXWOUmSkaJU6sloFcd7QLl5f3Xb8SvmMYG9xdmQ/9V6QKmJd6hkIh3i/spa7WCHGB/orxFICKZaEQhZgF5CmLOmW5Wa/Ymxy9GCz6q9hKaxD0R2HJ+Y+/3XjqmLO775vWcffuPMj8/OBquoO1BvJNlzkewU9A8ApI1gR3FVO/Z8/MXtZ392wZysmySVMkk3Qks43gM54GzIdrBDmHiHHekQi36w41/vxAU7vJCC4lxG4YtONTWlUhB68BblPzfUrzZL8QIaAa82+EQlupzoZ9VeQpPYByJTjk3Or987LOvkul3n/5+/urrtuBmWVwzU/3LwupOilc5cJDsFvQoAaSPYUVyxx56Pv7j9pH/ptUrPvD30/Z8OmaJMqhfvaOs8OPc43gM54GzIKthhxzWWVh8c+OSaXSPuLatgh/2A0g7qjX0v+0BkXLCKVgzUnbiGJKl84dfXnBp7LjnBLvU9MVDermKFpfKV8YEn/KxsqL9SbazQ4rvhLN5tLH5mYKuaWKd98BFBs9hKJ3ltSiX5fbaWpejdPqP4xZgP+pUJecp/xKsJZwlqqvzOKgW9CgBpI9hRXNFjz93lNeeajm+8PiT1do00qHk/S40T7pTPxVP+uIZwvAdinZu910OvpHU2ZPXMjsWVtfsra/JTpXvLXpK9pZeWViV/8dpdaVb5NpZY4UDDF16lUVMW93hR7AORccEqWjFQt4MaKkUrnbn8wb8M+rePS77shQD0+N/L65iC1dKKcehMEGio0z74iPB5H7GVTvLaVARHVJvy1sogRTBJfgcd9TD1dtTD+twqv3PQqwCQNoIdxRU99uz5aNoENVSKBjskSTPVPg7Bjlo43gOxdpy+tvHgWK/EO5wNeXFl7T/+13NP/viTP9kp6cy/Gzjz7wfObHrjzHd+crb/J2e/+5Oz/+FNL8nO8+ndny6tVF7v0TEEO4AOCFZRd6DeSLLnqggiVMv7QRCfiRc4mQbbe0l2AX4AIrbSSVYb6xoNTxitUPxmfpswDuIVw1hG3OdW/A6Sgv4BgLQR7Ciu6LHnhQMX7aCGpNhgx9aDF1X7UHBTd//AgDnhluOfpm/zDqi/U4b3gVf7u6XTQpag7kj3S5HZ2/64NHC8B6rZPjizYd/I5Lz9SIuMim7Iaw8eqEs57GSu8jDJubGlgNgHIuOCVbRioG4XVYpWRmqqDf6DfBgy+NVAv5pqmjXbXlXK+U21SidZbSojF5U15oO8pG7D8ZZGsANA7yDYUVzRY89Tb51z4hqxwQ5pptoHvMiCFVJw/rroBSn8GpOpzJdLzgw+b0mV9d6nhPNUnb21j0sJx3ughv0jc+v3Dp+bvafLWcWG3DK6DhkXrKIVA3W7qJJUXl+cdGrsYvXBf5Avb427A8XJ1G0vJzf+BRdhACK20knO8oP2KsV8kE7jA0/4Lb1ZdAyl4nMjv3MwY9CrAJA2gh3FFT322MGO7/7k7DdeH7q37F1VbipVcoMd4/bLEivCCupSiiBGYU0Kr7PwRS+28Bo4tfVmb+fj0sLxHqjt0NiN7F/cwYbcMroOGResouFA/fcGPrWLKjlt4mqqDf5N3rvswtO/tdTIlR1V2vvPGfUEV3DEVjrJXr4KWAS821giHxTe1RKETsJZor+nk/dS0KsAkDaCHcUVPfZsPejdxtL/xhl1QYeQzDNvh29jUcm9jSU22BFGK8xkJ/pQM+QQ06Dm7G1+XFo43gM5wIbcMroOGResouFA3YzVaydnllSSG1OoXtnlFHQRAKSNYEdxRY89ez6a/ut//u11/82If/7usBPjMCnygNKyf0Gjl/OiCirEYEINXlUk+uDPYgpxwtkCNWdv9+NSwvEeyAE25JbRdci4YBV1h+uZTA0GO6TGFntjS7KJDR9AtxDsKK7osefu8tq2Q2N/8U8jTnTDTvGvnvWCCR7rAaV+3MOrKpWCCz90KysuosVfdREsVE+3gxfR2dv/uDRwvAcad/P+6u6h67qQJWzILaPrkHHBKuoO1zOZuLIDAOog2FFcsceej7+4/eTOM06AwySZJA10UzSP4z3QuMn5pQ37RrYPzuhyZrAht4yuQ8YFq6g7XCe1k9jwAXQLwY7iqnbs+fiL28/+7IIT5pAklYlFOsKLOHzdu/QiYRzvgabcvL+68eDYyyev6nI2dHJDVju//oFx7+oz6+K1nGIfiIwLVlF3uE5qJ7HhA+gWgh3FVePYc3d5bc9H0y8cuPjUW+ckbT14UYoxd6+gSRzvgWbdvL+6+ch4puId0Q35a28OSc1jey6oomrwFe8lDtqjuy9IjTTTZc0LdTQT3K28m68HqZ7RBSB7glXUHa6T2kls+AC6hWBHcXHsSR99DrRgcWVtdG5RFzLA2ZBVpMMkqalRVDWBZoMXBDuAZAWrqDtcJ7WT2PABdAvBjuLi2JM++hzIAWdDNkU740/RGVPvMLfv+QEME8jwMqVSv3/NR/ho5VJZ6gMxV4P4sw/oJiYiEs6jZ/GblfVS7Q8Igyj2Z+qqjqnWFUBGqFWUlETSXQwAKSLYUVwce9JHnwM54GzI0bz83PDORUmmaLex+KGHMC5hgh1BrWQrAg52e4c3l27sZZ04hZnRbxbJWrOYll622oe1rHpXAJnAKpoEehVAtxDsKC6OPemjz4E2La6svfjh1OT8ki53g7Mhq6JJqsZMUj8l/WbmrqTT1+6pST4rshDmrUr/Igsr4mC3d8Quys9qqqZKM5MPL+vwdfraDtUVugBkD6toEuhVAN1CsKO4OPakjz4H2rfz7OyGfSPnZu2oQaqcDdkUnYykr77hPaPUFFXy5tFiQw92pUfFH/ywgzvJErcob04VrpBcdOG1Z0lEpAeAbGEVTQK9CqBbCHYUV41jj3oby9aDvI2lwzjeAx2xf2Ru3a7zg9MLupwuZ0M2+fcn5lVeNZA0/OV9Ka4+CGvuVOxIY0MPdqUWxCpiJgXiFmXqvBCGysU1q8hLJqztONUJugBkD6toEuhVAN1CsKO4qh17Pv7i9rM/u/DEjz9xklTKJN0ILeF4D3TKscn59XuHb95f1eUUdW5DrhZuCCq9yIOir7bQFTHXXsQuygtyeLwHnkYWXi0fzOTp9EUe7AORcayiSaBXAXQLwY7iij32fPzF7Sd3njEBjmfeHvr+T4dMUSbVi3fYZ8/p6+6n18fxHuigrkQ6BBtyy+g6ZByraBLoVQDdQrCjuKLHnrvLa841Hd94fUjq7RppUPN+lhrhhhQiEd399Po43gM5kIENWXZotgSfstFZ7AORcayiSaBXAXQLwY7iih579nw0bcc1JEWDHZKkmWofh2BHLRzvgRxgQ24ZXYeMi66ids252XuqKEk9I1nlHxr49JG3hiSjmnn8gKRz2qFuEeuZ2GTnqF7SBQBIEcGO4ooee144cNGJa8QGO7YevKjah8yN4QMDJqbgH+h93oE9LOnjfHhbeOxx345NmLyfKZvPCs4hOv/pSeF4DyRk++DMtuNXdCFhbMgto+uQcc4qKvkfHL9iaiSj7p5TUQ9VKVbWHty6v2rXqPOO8ETFR7ADAFJGsKO4oseep94658Q1YoMd0ky1D3iHdCuG4Bzc/QiFCVXoSVa+XHJm8MU2lkyweO+TwspOf3pSON4DCZERyKbDn6UT72BDbhldh4xzVtHJ+SX5GV1pZYdjVy6vPWhkxSbYAQApI9hRXNFjjx3s+O5Pzn7j9aF7y95fMEylSm6wQ47eYcCgIo4gB3WfqrEmqQO+EXPkj41N2JVewZsvkU9PCsd7IDmLK2tbjk4898ElyeiqZLAht4yuQ8bFrqKxNdsHZ0z+sd0Xdp6dVUXNPwlRpx3dO+nIitheBYAUEOworuixZ+tB7zaW/jfOqAs6hGSeeTt8G4tK7m0sseEG79iuDuhmshNuqH24txqHebsyWEQin54UjvdAolS849jkvC4ngw25ZXQdMi52FbVr1DUdL528qssBt1JOOlSww8+okw4rWyyxvQoAKSDYUVzRY8+ej6b/+p9/e/3OsuT//N1hJ8ZhUuQBpd7h24QW9F8yTGzBq4qEG/xZTCGOFZAI21pzhdO9yk5/elI43gM5wIbcMroOGRe7ipoa9aiOo5/fUkXx279/VCXJV8zonWh4Zxr+v/ZZSnBuUySxvQoAKSDYUVzRY8/d5bVth8b+4p9GnOiGneJfPasO5t5x3TwiVB3TpapUCi690K3sY74Se+QPltlXKgXLlCpvcbrazJTEpyeD4z2QA2zILaPrkHGxq6ipkYx6CYvixTguvK6S5Ctm9M855PxDnXvYpx4pnnRkRWyvAkAKCHYUV+yx5+Mvbj+584wT4DBJJkkD3bQLvGCHilz0KI73QMpmFrxL1TqLDblldB0yzllFXzp5VdVIst87q9L4q48u3/hAJcnbcRAT7FABDv/cRf+ZhWAHAKSGYEdxVTv2fPzF7Wd/dsEJc0iSysQiHfqqi0C1MwGCHQCaIGOPdbvOV4xAOqFzG3LP79OaxT4QGdfUKjrx2jr5OTm/tGvo+iU/HwqCHUE2RLADAFJDsKO4ahx77i6v7flo+oUDF59665ykrQcvSjHm7pW0EewA0Jxjk/Prdp3v7CNLoxvy194ckprH9lxQRdXgKwOfqqJ4dPcFqZFmuqw1vk/LSVhE9YwuANnT7CqqntahfqIaNnwA3UKwo7g49qSPPgfSd2Lqzvq9w4fGbuhy25wNWUU6TJKaGkVVEyDYAWRLs6uoF+a4+j7BjtrY8AF0C8GO4uLYkz76HOiKc7P3dpy+pgttczZkU7Qz/hSdMfURYQhDcpq+xj18inKpHE6MuwLeX8iAbmIiIpEF+s3KeqlSZz4gDKLYn6mrOqx6VwCZ0Owq+sy2f9ix++fyU5cRhw0fQLcQ7Cgujj3po8+BHHA25Ghefm5456IkU7TbWPwARMX1GkGN/FsRcIi2NGRSEJ3wsk6cwszoN4tkrVlMSy9b7cPaVL0rgExodhV9//ipP9v2j/JTlxGHDR9AtxDsKC6OPemjz4EccDZkVTRJ1ZhJ6qek38zclXT6mv201Ir4gndFhcev8S+ysCIOVkuXPan6Aqs1M/nwsg5fMtd2qK7QBSB7WEWTQK8C6BaCHcXFsSd99DmQBSem7uhcS5wN2RSdjKSvvuE9o9QUVfLm0exAg4ouSM6EIXT8wZ9ghycc1SIXzgLjmtn5cJYERXoAyBZW0STQqwC6hWBHcXHsSR99DmTBlqMTz31waXGlxTdMORuyyb8/Ma/yqoGk4S/vS3H1QVhzp+K1VkGgwQQfvIiDCUN4gliFHZ5wxEUuYhYY16wiL5mwNiGqE3QByB5W0STQqwC6hWBHcXHsSZ/p84F9B/7g795Z9+qRb/7ol6Nzi2oqgHQsrqxtO35ly9GJ1uIdndt5VsQkPP2lkgluaPpqC10Rc+2FWYidjywwvlllPpjJk8xFHp3rOiARahUlJZF0FwNAigh2FFf02GPXnJu9p4qSJG+mPjTw6SNvee9ZVM1aZZ9qZ0b4J1BblV+1qcYB1YcD+w70/fAXfd/+074/erLvW99b/6OTxDuA9G07fmXjwbGb91d1uWFqQ9YFNIOuQ8axiiaBXgXQLQQ7iss59kj+B8evmBrJqDGAinqoSrGy9uDW/VW7pmFV/paYdU39qg0FO/6Hv9njRToCj/zxdzYd/ky3AJCi/SNzOtcMtSHrQtpkJ2NL/CkbndXVrgPqYxVNAr0KoFsIdhSXc+yZnF+Sn9Gj0c3K0Mby2oNWj1gEO3SfP/Taib6vP6aHKn19X/03/7bVLgXQBWpD1gU0g65DxrGKJoFeBdAtBDuKK/bYE1uzfXDG5B/bfWHn2VlVNMI/NYZ3lztxjbCJ38avLAc3lZvwgHXHePD3Sq9lqSTV0T9gRj9FMuEi9AxuRWMLDObqHxiwPsXWVGNN9fkf7jjm3cAS+P4P/mrDvhHd4ne/e/HDqYffHNp8ZFwy0tUzC8t6AoBsUBuyLqAZdB0yjlU0CfQqgG4h2FFcscceu0Zd0/HSyau6HIit9JnxvxUIqFoZBDm8rAlD2BGKcLKZrZKzQD8v/1YEMaw25VLQou4CvTZqMX4cI7Z5U4011efHJ+Z+/7Vj6uKOp5997umfjx39/JZu4ZOePzF1Z8fpa9uOX3HekTk6t6geoQKgs45NzkvShZrUhqwLaAZdh4xjFU0CvQqgWwh2FFfsscfUqEd1OINww53RG+8rZvxvxvx2UCBaaeW9UEEYqJBav2C3dFRbiDWDXwx5S2xggTJX2KRa+6Yaa6bPZUy1fu+w5NftOn9o7Iaa2ogXP5zaeHBMZpSfz5cvq5uPALRPbZWNxDvMhoxm0XXIOFbRJNCrALqFYEdxxR57TI1k7CsI7Cd3OI8stYIUZtxvj/lNPrbSyofL8UhtK8EOn7ckFdmoXKavgQWa/4dd6WqqsSb9VtF1bZBv4ejnt9RDZI3tgzOSTkzd4eYXoAWyWa3bdb7uU0s7uCEXDV2HjGMVTQK9CqBbCHYUl3PseenkVVUjSYUz7CQN1LtaVLLjIOEA34sshDkdY5CputIOBMTmvaZ6rnABdktH7KdoQQgiMqHWAs0kby61ZO8z4ts31VgznZkQGaS9cmp685FxGbBJckIhAOqanF/asG+k9vUdSW/IOUbXIeNYRZNArwLoFoIdxdXCsUeGAbuGrutCyB/jC++5n8FQ34sA+EolE1zQdV5gwEQKVHWQD5ZkhQzslhHRTzE1QRjEWmb0ox3WpGA5DT2gtH5jLc3jffTijsffG91ydGL74MzRz2+Nzi3qWgCVZNtZXFnThThpbsg5Q9ch46Kr6NfeHJKax/ZcUEXV4CsDn6qieHT3BamRZrqs1TjZiGqqce9RnaYLAJAigh3FxbEnfd3tc3Xny/bBmec+uCRJ1/pkaEf4A3Co5+M4yVTqRmgGXYeMc1ZRFekwSWpqFFVNgGBHKNI5AJASgh3F1WvHnuDyCS24cKN1TS2wM59u+nxg34E/+Lt31r165Js/+mUWogzq0n353TYfGd92/Er07cJAAcXuIdVWHDupO7yL19QwqQfGS9nqOiDCWUVN0c74U3TG1DvCcwZ1vhBeZCrlcKP1t9r+yutPc6haLwFA0gh2FBfHnvSpPh/Yd6Dvh7/o+/af9v3Rk33f+t76H53MyFUViytrJ6bu7Dw76zygcXJ+SWoGpxd0GSiG2D2k2oqdSa1e6N5ZBDuAdjmraDQvPze8c1GSKdptLPb2aOXDt+CXyvpnZYM8qt5LAJAsgh3FxbEnfarP/4e/2eNFOgKP/PF3Nh3+TLfIpHOz954vXzavvN1x+pqeAORa7B5SbcX2pDYudO+sHhgvJdwDQLucVVQVTVI1ZpL6Kek3M3clnb5mPbvd3h7tZ4cJE98Ir+Qg2AEAiSDYUVwce9Kn+vyh1070ff0xdc4j/u3DD/fQFzE4veBch3Jo7MaLH07tOH2NV94iZ2I3TLUV25NM0c74U3TG1MeouLhd+GOesq6UKjPdjIT8IZJPj5PMMKkHxku1ugLIAGcVNUUnI+mrb3iXbpmiSt48mrU9eptxENYw/C2ZYAcAJIpgR3Fx7Emf6vM/3HHMu4El8B/+4n/csG9Et+hB6iYX9crb9XuHue4DuRG7h1RbsT0pmpefTV/oHl7cHgQ2rKyfdwZLZt5oJruqdwWQCc4qavLvT8yrvGogafjL+1JcfRDW3Fm23+Jkb4/eBly5cUqNbNHqpypmfeNth+ofXQCAFBHsKC6OPelTfX58Yu73XzumLu54+tnnnv752NHPb+kW/oUSN++v6kLve/HDqQ37RtQrb+W/xqUf6CGxe0i1FduTTI2pVz9NRtXHXOgec3G7M0CKy0tWUzVmkt0+o1RX6AKQPR1cRfWWqqIZ9sZeGpCC2la9aj9X0Th32PABdAvBjuLi2JM+0+fHJufX7x2W/Lpd5w+N3VBTxeLK2vPlyw+/OSQ/7fqeNjq3aF556zzl9NzsPcIfyCzZPNU2aydTqRtZ27WTkVTnQveYi9vtgEVcPpxFcmqqaWa3zyi3B4CMYRVNAr0KoFsIdhQXx570NdjnN++v7h+Z23xkXJKuyqmXT16VoaMk+Z9KnsAHeoKzIZt8Sxe6O/GJuACHnTd15i/CYZXdPqNUJ+gCkD2sokmgVwF0C8GO4uLYk742+3xxxR4m5cfN+6vqlbfO/TtSs3voukzSZSAbOrnz9GIWgYZuYwlm6C+VuLID6DRW0STQqwC6hWBHcUWPPXbNudl7qihJ8mbqQwOfPvKW955F1azHhH8LtVUZITTVuDGqD3Whea+cmt6wb2T74IzzPpS8kv/p8+XLmw5/Jp32+HujeY31oOe0uSEXGV2HjGMVTQK9CqBbCHYUl3PskfwPjl8xNZJRf2ZXUQ9VKVbWHty6v2rXZE+z8Yim2ncz2CFG5xZfPnl1/d7hjQfHCnXTh4q4GbJybj4ybl5561wSAiSq/Q25sOg6ZByraBLoVQDdQrCjuJxjz+T8kvyMHo1kGGlXLq89yPwRK8/BDkNG+EW+0kH+7+rOl5dPXt18ZPzx90b1BCB5HdyQi4auQ8axiiaBXgXQLQQ7iiv22BNbs31wxuQf231BRpiqaAnvO9evFrBuRA9eNuCHCcq6XipNkyB4ULdB9HP8WQb0ixj9ZlITCD7YYoUqgkX588fGL5pq3JDYPu+ImYXl5z64tH9kjns9xOjcovTz4++NqlfeHpuc1xOATkhuQ849ug4ZxyqaBHoVQLcQ7Ciu2GOPXaOu6Xjp5FVdDkQqvUhAZQDAizjoUEM40Q9DRLJW20Ya6DrJ+jm/XTh3pJnLTApb+3GM2PZNNW5IbJ93xOLK2qGxG899cOnhN4e2Hb/CQz3F5PzSscn57YMzTnhO1atLmYAWJLch5x5dh0wZ2HfgD/7unXWvHvnmj36pHobFKpoEehVAtxDsKK7YY4+pUY/qOPr5LVV0VMzoBQBUKCBQWVMuqYKJHVTL12vgRxpC3kLrLsdhLSpsUq19U40bEtvnnXXz/uruoev7R+Z0GRGD0wubj4yv3zv88JtDkpHu0hOAxqSwIecVXYfsGNh3oO+Hv+j79p/2/dGTfd/63vofnVRXBVZbRe8ur+35aHrrwYtPvXVOkmSkKJV6MqpjwwfQLQQ7iiv22GNqJGM/EtJ+cofzyNJ0gx2VH1R/OQ5rUWGTau2batwQ6beKrkvL0c9vOQ/4hJC1+sTUncHpBV327R+Z2z44Iz+5OgbVdGtDzgG6Dtnx6Etve5GOwFcf3/S/3TdSbRX9+Ivbz/7swhM//sRJUimTdCNUwYYPoFsIdhSXc+x56eRVVSNJhTPsJA3Uu1pUqhw5e0GIygBA2dz3YUUo7DBBbL6RBmGtr1qzylahikWpX8v7BePbN9W4IaYzUyaj9/V7hx9/b3TH6WvcvlGb9I/00rbjV9Qrb+OeUIOi69aGnAN0HbroxNQd+8XtD712ou/rj+lQR1/fv/m3D6v1M7qKfvzF7Sd3njEBjmfeHvr+T4dMUSbVi3fUOC0pBDZ8AN1CsKO4Wjj2yDhwV/w1/144QLFiHIo5wNsH+9h83Qb2YmvcxuLlggYOq71uJOUGHlBav3FDunu8l/O8Fz+c2rBv5CYvam3V8+XLmw5/tu34le2DM9KfhXr7LwxnQ15affCf3hsxI59q6dpt4oyMeZA2c9+irHiy937l1LSe8Lvf/eGOY94NLIHv/+Cv5PgYXUXvLq8513R84/UhqbdrpEHN+1ms0wlXjUlJSPnjNDZ8AN1CsKO4OPakL4N9vriyxgtcmnJi6s7uoevqlbfOLTDcK1QQzob85cKyjHbuLa+ZJMOeu0urKi34SSql5cdTRb/cPYP7QPQ69SbyHaevbR+ckd3ytuNX9ASful0x9pLG4xNzv//aMXVxx9PPPvf0z8eOfn4ruoru+WjajmtIigY7JEkz1T4OwQ42fADdQbCjuApw7JGDui3mSg9LU41blME+l7NA9QKXag+jReOkG+X7ffy90ec+uCSn3VxBk1fOhjzrBzse6FJV/33kyz/ZeWbvoDUi8i5VS2DgoXZmasFBXk3pugzuA9FDVOTCOVrNLCxvPjL+yqnpHaevVYtrVHNscl5d9LFu1/lDYzekJrqKvnDgoh3UkBQb7Nh68KJqHwquRbWvCQ1PNfTVqQF10hFevlrtJMRpIUvoL5Wkyi9FZm/74zqDDR9AtxDsKC6OPenLZp/LmeLuoetysihne7zGpX2jc4vqlbdOsENOxKXevmMcPcrZkBsJdqhIhzT74bFJXdU6b3hTPUTijWeCgYudz4Rs7gORcbIvlSPUw28OycojmefLl/WEBERX0afeOmciGirFBjukmWofCLc+P6TgbLNmK7Y3Zyuv36/v8JZUWe99SjhP1dlb+7iOYcMH0C0EO4qLY0/6Mt7nMwvLPIQiOeoSa/VXRMnoWvQgZ0OevVMn2GEiHa+WL9W9AKQB9nAlqspgJhsyvg9EF6kYsbpDcMO+Eef+yhNTd9K5Vi66itrBju/+5Ow3Xh+6t+z9JqZSJTfYMV7lPW6S1VSNNSm8zsIXjVN6DZzaerO383Gdw4YPoFsIdhQXx5709Vyfqydx8gKXzpKTeOdhH+rvltLV+0fmnEnIIGdDNsGOhaW16FM57EjHzO3lymCHGXiEw464EYc9NRy7qKZh2SvaI5sBZ5STBT23D0THzSwsn5i6s/PsrBO8UHf/7R66nlpcI1Z0Fd160LuNpf+NM+qCDiGZZ94O38aiknsbi2y14YYXbOnepqw2cTPZ7ATsqVXENKg5e5sf1zls+AC6hWBHcXHsSV/P9bmcdL744dT6vcMbD47xEtbkLK6sqb9qyum+dPXj743qCcgkZ0NWwY61B7/7z4fHNr1x9l8mwgcKmEjHfylfWlhem/hycbbi4qlg4CH/1hh0uFOt4UrIVNpTY1t2U8/tA9FB6qlG63ad33xkXI4sXYxo1BBdRfd8NP3X//zb63e8LffP3x020Q0nRR5QKltfGGnQIUezRXpVsRts7S02nC1Qc/Z2P65j2PABdAvBjuLi2JO+3u3zE/6z7nUB6To2OS+rjQwP1IU2vPOl65wN2QQ7/va/jUtm0xtnf33Ji3fY13TI1KXVB5KfqXgBbTDwCAdDcdyp9nBFDVgUVekMZqoutSt6dx+IRsiRQvZRsqeS/dW6XeelqCf4ZN+V/Zd/RVfRu8tr2w6N/cU/1Xq9dPyrZ4Nt03pAqb8xe1WlUnDhh25lxUW0+ABouMH70yu3cXf29j+uM9jwAXQLwY7i4tiTvjz1+ejc4qGxG9k/c82NwemF/SNz6o0Dusqnrgnni0iTsyGb21iWVh/8TRDveP3EF3akQyyteMGOa7HBDp8ad1QbcVhTrbm8WjNqUZX2MisHQhmQp31gkcn+X8U1nCcuq/e/qltRevQJULGr6Mdf3H7S35xjk0ySBrop4rDhA+gWgh3FxbEnfXnq82OT8+pvd9t4bW1XHRq7senwZ7Jebdg3suXohHwvegIS42zI/2o9oNTEO1QykQ5xf2VNamoEO4SJWMQKplpzmawX9VA5gh1I0PbBGbW3kf3/yyev5u9Cs2qr6Mdf3H72ZxfMpm2SVCYW6ZDt15bkpRcJY8MH0C0EO4qLY0/68tfnM8Fra2XIravQJaNzi0c/v+VcN67++tq7f2XNJmdDtoMdwsQ77EiHWPSDHf96Jy7YEQ5q4sYzkam6wit5QQ5PeJl6sEzdkGAHmiN7EnMrysNvDkUvJdO5nKqxit5dXtvz0fQLBy4+9dY5SVsPXpRizN0riGDDB9AtBDuKK3rssWvOzd5TRUnqTzcq/9DAp4+85b3rXjVLSvhXSluVE/emGneV6kNdyDWG1hlx9PNbr5yalkHL+r3D63ad57qPjnA2ZBXssOMaS6sPDnxyza4R95ZVsKPQm0Zx9oHZJ0d29Vzk2AjpobEbksnmM0QTxSqaBHoVQLcQ7Cgu59gj+R/4T0o3RXWWo6IeqlKsrD24dX/VrmlDs/GIptoT7OiaxZU19QKX3UPXiXpkh3wvzteh/nj7yqnp/SNzzoAHNTgbsnpmh3Tv/ZU1+anSvWUv3VVpaVXyF6/dlWaVb2OJJfsuWw9fux5VkH1gxsmeWb6Fx98blc1/++AM9yHaWEWTQK8C6BaCHcXlHHsm572Lq6NHo5uVoY3ltQedO2IR7MizY5PzMpZet+v8ix9O6SpkjGz16q+4z5cvbzw45tx+T6CqGmdDXlxZ+4//9dyTP/7kT3ZKOvPvBs78+4Ezm944852fnO3/ydnv/uTsf3jTS0/8+JOnd3+6tFJ5vUfBFGof2EXqVhTZrjcfGZcOf+6DS3oC6mEVTQK9CqBbCHYUV+yxJ7ZGzplM/rHdF3aenVXFgB9WKAd3jpsAQ3AvuQj+NBlWlcrWXy9j/nJphSrMPenhy9scTTXuptg+zzcZBzpDaPQKNUySny9+OLXj9DX5KvWEwotuyGsPHqhLOeykLvGwk3NjSwEVcB+YqBNTdw6N3ZBjtDlMK5PzS1JzbHKeK7aaxSqaBHoVQLcQ7Ciu2GOPXaOu6Xjp5FVdDkQq/bCFCiyEj8/wKnUQw1RKXUVcwwpSuMykcDl+HCO2fVONuym2z4tGhs3bjl/h4RG9QgZL+0fmZOAkY3Vd5SvynS9syC2j61qmrr401B2mmw5/tuXohGyePCK6U1hFk0CvAugWgh3FFXvsMTXqRKrarbyVM1bELKTghRu8YEMY2LAq7QhExYyVgkkyS8WyY9s31bibYvu8aGb8F7jIOfr6vcMvfjjFvRI9Sr47demHeuWtri0GNuSW0XWNu3l/dfvgjGxcGw+OSafJTz0BSWIVTQK9CqBbCHYUV+yxx9RIxr77wH5yh4qDqLzPDisEQY7YYIfPj3ioYo14RFPxi6Yad5P0W2XXFZq60Nr5cyV6zujc4uD0gi74ZhaWny9fli/3xNSdXH6/bMgto+sciytr5uKpaNBwx+lrMpU7AdPEKpoEehVAtxDsKC7n2PPSyauqRpIKZ9hJGqh3tahUee5VLpnrNcIYh1epAxyVgQ8RBCVqxCPMpHA53mLi2zfVuJtMZyKWnPfvPDtL+KPX3by/KoM39crbdbvO5+8v0mzILSt418mh07kdTDYQ2UxUcJC3omRBdBW1a+yzI3UipPK8lb821Uu6AAApIthRXC0ce2QUumvoui6EvGNnqeRdrxFcsuHz4w2+4MjqxSIU3UpXVERCFOt4HMzV0ANK6zfuJo73tc0sLL/44ZQ6+989dF3GzHoCckRGdBv2jchXLKO7/SNzo3OLekLvcDbkpdUH/+m9kSd+/EntdO02Ubwi7gN3nL4ma7us8/If33hwjBv3Ms5ZRSXPW/nbJz3Toc4BgOYQ7Ciuzh17unPs7EUc7xsk4+Hny5d5Z21eyXjvxNQd9aha+alrfTIp++EPZ0P+cmH5iR9/Yr+H5a6kpVWVFvwkldLy46nbapbCyuU+UK3PO8/OqquZnBX40NiNvN7PlUvOKqq+uOhKa9/bK3grf21OrwJAagh2FFfnjj3tHztlCbaYKz0sTTXOFo737ejFSwDQrP0jc+pv4JsOf7bt+BUZJeoJWeJsyLN+sKPuW2X/+8iXf7LzzN7BaV0W8deZty2hxXZCDvaBsk46F53JirrZf0Pzdv9tr1yS1tNiV9HYGvm6TZ638tcW26sAkAKCHcXVuWOPdUBFTRzv26HucJGf2RwAo4PUUxt3D113Hn0qI8ksvPLW2ZAbCXaoSIc0++GxSV3VYb2xH+7RfaCsdZuPjK/fOyy//KbDn7ELyrHYVdSuUdd08Fb+psT2KgCkgGBHcXHsSR993qaZheWdZ2cff290w74Rbn0voKOf31J/RZftSFaDY5PzekK6nA159k6dYIeJdLxavlT3ApBW1RggZUhm94Gjc4sn/FurXj55VVYw51mhsqbJVG5FKYLYVdTUqEd1VHuUbOWMFZukFLxwgxdsCAMbVqW99dbYloNJMkvFsmPbN9U4WbG9CgApINhRXBx70kefdwq3tEBGns79AjJMfe6DS+pWgg6OSwenF54vX7Y/y9mQTbBjYWkt+lQOO9Ixc3u5MthhBh7+cMcXjoQs0k4LJ9uzhNP9BmqxXoOKcVVDH5WsLOwD1XVDzhqirt2QVUi97ZW4RmHFrqKmRjLqJSyKuspD5Z1HllaGFYKNMbJRmoLaLv2iPaMjmCStwybV2jfVOFnSM5WdAwApIdhRXBx70kefJ0SGoxsPju08O8vlHkUmq8GhsRvbB2fUHQftR8RkVPzKqelNhz+TZW47fkXXRjZkFexYe/C7/3x4bNMbZ/9lIvyrr4l0/JfypYXltYkvF2crVtFg4CH/NhR5MAMVb2RUOWSxxzAxiw2yVrNyqXIJaXC6Tnr4+fLldGKXsm7IivHwm977QSUTecIC4HFWUd7K3xGmuwAgZQQ7iotjT/ro8+SoF7jISGbL0Ylu3d2ALFu36/z6vcMyyt0+OCPjXhlm6wlVqAiaeVmMvV45G7IJdvztfxuXzKY3zv76khfvsK/pkKlLqw8kP1PxAtpgNFJ3COKNVhTTvmKYZA1s7LxkVLMgsOF/UMhZRvKcrnvl1PTLJ6926ikY6q0o8v2qW1Ekoyf41FTioajNWUUbMclb+etpoVcBoCMIdhQXx5700edJkxGsjGOdp1oCyujc4rHJeRkDP/fBJV0VsO9cMBd02FccyCD58fdG1c0szoZsbmNZWn3wN0G84/UTX9iRDrG04gU7rsUGO3xqEBQzwAlDG5Lz24c1hr2oMK9mCGaLnTFVdtfJdiqdLBnp1c1HxnfHDBerUpEL59EJskAV49h5dpa4BlrjbN1tqNi6C65zvQoAzSHYUVwce9JHn3dFFt7fgSxbXFl77oNLj783KpunjJb/8KfDr5yyXhAbkBVJ3czibMj/aj2g1MQ7VDKRDnF/Za12sEOEUQmbaeWFKtxcID7Y4S+xVOo3AQ6Z5MyYKtN10ucbD47Z4aQXP5ySpAtVSHv5gmQJ63adl4y57gboFGfrboO7dTfP21ottcOUTTVOW+d6FQCaQ7CjuDj2pI8+74rdQ9dlHLt+7/DLJ69W3lMNuE5M3fnbE1ftJ3TY1M0szoZsBzuEiXfYkQ4hw3up/Nc7ccGOcJwSO0TxQhseL2xhRzQ0NY8ue4VgsR5/XnupwcI8qQ+ITNe9cmo6GqqQTfX/+PPPDo56D1558cOpzUfG1aUfhvShfEHyU5eBTnO27jbYm2HRda5XAaA5BDuKK3rssWvsB3Gp8aHKPzTw6SNveQ94U80SEf2bpafKeUNTjbtN9aEuIF2jc4sygpLhEyMl1FXtyS9HP7+14Z2Lzoasgh12XGNp9cGBT67ZNeLesgp2FPreCtV16gaWZaeDfNLt/5t9I7Kpqguy2FqRMmfrRkfQqwC6hWBHcTnHHsmrh4qboro7XUU9VKVYWXtwy3rXWoqail8Q7EBDZCXnxn5E2U/oUGTUbR7k4WzI6pkd0uD+ypr8VOnespfuqrS0KvmL1+5Ks8q3scSS3Zct9asvkqS67hv7L/75/29SV1V6vnz50NgNXQBS52zd6Ah6FUC3EOwoLufYox7OFz0ayem+Xbm89qBLRyyCHei8o5/fWrfr/JajE/tH5uyRLWCe0CGcN7M4G/Liytp//K/nnvzxJ3+yU9KZfzdw5t8PnNn0xpnv/ORs/0/OfvcnZ//Dm1564sefPL3706WVmMsZikN13ejc4qbDn71yalq6Tk/w7Tw7+/LJq7oAdIOzdaMj6FUA3UKwo7hijz2xNduDF/hJ/rHdF+R8VBUDdmTB5MP7wvXfJd0Kr6X/Vrbo3y2tBQZzNfRytfqNuyy2z9F1h8ZuqNfWxt65gMLacnTi6Oe3om9miW7Iaw8eqEs57GSu8jAp7r6NYrG7bsfpaxsPjpl3J52YurP5SPb22iiY6NaN9tGrALqFYEdxxR577Bp1TcdLkb+zRSrjgh3yb0UQw2pTLgUtqgUkTGOvjVqMH8eIbd5U4y6L7XNkhIxFubgDtpmF5fV7h6PP0WRDbpnTdeYSD8lsPDjGBoiuY+tOAr0KoFsIdhRX7LHH1KhHdRz9/JYqOipnNOEGK+/EG4JrLjQvJmHP5bAWEjap1r6pxl0W2+fILBl9vfjhFC9wgYMNuWWxXbfj9LX1e4fZ0JAFbN1JoFcBdAvBjuKKPfaYGsnYp572kzucR5ZWRhYqogwqxOFFNrxcxZUeNeMRTcUvmmrcZdJvlV2HTJucX9o+OLNh34gkczMXwIbcMroOGccqmgR6FUC3EOwoLufY89LJq6pGkgpn2EkaqHe1qFT5JzgrklF2700JQhCRCbXiEWaSN1e9O1OaatxlpjPRWwanF/aPzOkCCo8NuWV0HTIuuoraNfbZkToRUnneyl+b6iVdAIAUEeworhaOPZPzS7uGruuCzYsz+EolfSg1NeaCDj8CoXl1NQ661qRgOQ09oLR+4y7jeJ8bxybneYFLYdXYkO8ur+35aHrrwYtPvXVOkmSkKJV6cuGxD0TGOauo5Hkrf/ukZ7rROQBAsKPAOPakjz7PjcHpBfUCF/l5aOyGrkXuLK6sbTt+xYlqVduQP/7i9rM/u/DEjz9xklTKJN2o2NgHIuOcVZS38neE06sAkBqCHcWVmWNPcD2GFlwJEq+pxpnD8T5n5Hx3/8jclqMT5vWZyJnnPri04/S1zUfG7XhH7Ib88Re3n9x5xgQ4nnl76Ps/HTJFmVQv3tGhcUj85euB2lPr6MBvyD4QGRe7isbW8Fb+xsX2KgCkgGBHcXHsSR99XhDEPvLhlVPT6r2z52bv2fGO6IZ8d3nNuabjG68PSb1dIw1q3s9iD40cNSalqQO/BvtAZFzsKmrXqGs6eCt/U2J7FQBSQLCjuDj2pI8+L4KZheXH3xvdsG9Ehsqjc4u6Fr3m0NiN58uXdaEy3hHdkPd8NG3HNSRFgx2SpJlqH8cMTqJqTEpTB34N9oHIuNhV1NSoR3XwVv5mxfYqAKSAYEdxcexJH31eHKNziy+fvLph38iLH07pKvSOwemFzUfGF1cqLsQw8Y7ohvzCgYtOXCM22LH14EXVPhSMduwrzGVEounBT8D6+6xVdljjGWsoFTQ1U/2MfKYvHABFFx73G7aMfSAyLnYVNTWSkf2Aygu1N1B5FQdReZ+1JVbk9SblbWBeztmKK1pWCibJXGGTau2bapw46ZnKzgGAlBDsKC6OPemjzwtoZmFZ59AjJueXnvz//Pbc7F1dtpyYuvOtA6PRDfmpt845cY3YYIc0U+0DMvbQYx1//OOMQ8zIxB6iWHl93bvDnisYSHlLdxblTdWTw4Zmqpf1c+G0uN+waewDkXHOKspb+TvCdBcApIxgR3Fx7EkffY7nPri05ejE/pE556oBpEYGJCem7kg6NHZDfupa34sfTqmN9P/8/iVdZbl5f3XzkfFfX12Ibsh2sOO7Pzn7jdeH7i17N7yYSpXcYEcw4vFZgxxveKKY4UowyR+vhPRYyhY09lqGk6XWL5hFWcusmMUiM1T7DVsV7TogU1pYRXkrf11s+AC6hWBHcaljDyn9pL8AFNLiypqMsZ/74NLDbw5tO36F6z46TgYexybntw/OSHr55NX9I3N6gk8qH39vdPORcUnPly87wQ5ldG5x0+HPnNvyVaRD/eU2uiFvPejdxtL/xhl1QYeQzDNvh29jUcm9jSU2lBAGKcxka9wSTq0muhyP1PoFsyhrmVVm8ZhfwWPP0iL2gcg4VtEk0KsAuoVgR3GpYw8p/aS/ABSbDJ53D13n+o4WnJi6s31w5sUPp1TMwglnSFEqVbBj59nZyfklPaEZ8u0898ElWYIpmkiHiG7Iez6a/ut//u31O17o6s/fHXZiHCZFHlBaLgV/4fXiDCqUYEIKXpXKOYGJ2iEH0zhcuBXFsKfaywxnqVx4uJDwN2wD+0BkXGZWUW/Ts1RGIV1NNe4CNnwA3UKwAwAyYWZhWQbwlXd959/iytqJqTvOa2tUwELS+r3Dcopsgg6KCnbsPDsrGUmthTMaIZ/y3AeXZPl2pENET9zvLq9tOzT2F/804kQ37BT/6tlgkGJdYe5HFbyqUim4rEK3sqIOWsygRtoGIYmwpQlSmKlWs/hZgoXrz5YWPKAU+ccqmgR6FUC3EOwAgEyYWViW0fWGfSOPvzcqmeTG8KkZnVtU8Yijn99y7grZPXRdnf5K2nxkfMfpa3qCT7oi6UBGg+TXlm/EiUDFnrh//MXtJ3eecQIcJskkaaCbJqusb1jJpNiuA7KDVTQJ9CqAbiHYAQDZIkPrFz+c2h37xLssUSGJnWdnt/v3jDjhjP0jcxv2jagLNJ774JIztadVO3H/+Ivbz/7sghPmkCSViUU6gusutFLZvmIjexjzIONYRZNArwLoFoIdANADRucW03/Ax+T8kgpkbDk6sdl/EIae4Ds2OS+VL344FRvsyLEaJ+53l9f2fDT9woGLT711TtLWgxelGHP3ShL0HSgZDnUw5kHmsYomgV4F0C0EOwCgB7z44dTDbw49X758aOyGrmreudl7zh0Zg9ML6uKLDftG5GRUMnqCzwQ7jn5+68TUHWfewuLEvWV0HTKOVTQJ9CqAbiHYAQC9Qb3AZbP/2M7oVR6D0wvqORfO20nOzd5TgQxJj783+vLJq3qCT5ap5nIeEYoaOHFvGV2HjFOrKCmJpLsYAFJEsAMAeszN+6s65zsxdUfOIzceHFPXaDgP+5DGOXjWaaZw4t4yug4Zp1ZRUhJJdzEApIhgBwAATeDEvWV0HQAASA3BDgAAmsCIvWV0HQAASA3BDgAAmsCIvWV0HQAASA3BDgAAmsCIvWV0HQAASA3BDgAAmsCIvWV0HQAASA3BDgAAmhAdsX/tzSGpeWzPBVVUDb4y8Kkqikd3X5AaaabLRaV6RhcAAACSRLADAIAmOCN2FekwSWpqFFVNYdEDAAAgNQQ7AABogjNiN0U740/RGVMfUS719Q+MO/nxgf4+pVT2p7gVXstSSeqk6M81UFKT7WVpehF+s7JejtSZRZpZoh+bhOpdAQAA0GEEOwAAaIIzYo/m5eeGdy5KMkW7jcUEOKy8/FsRbbDalEtBC6vKRCe8rBOnMPP6zSJZaxbT0ssGuc6r3hUAAAAdRrADAIAmOCN2VTRJ1ZhJ6qek38zclXT62j01yWeFGEzev8IiDDeEF1z4vNBE3FxOXrKaqqk3S8ynJEJ1hS4AAAAkiWAHAABNcEbspuhkJH31De8ZpaaokjePVi0GoYMPXszBy1W7XqNKPpxFcmpq47MkK9IDAAAASSHYAQBAE5wRu8m/PzGv8qqBpOEv70tx9UFYc2d5zW+rWDGGcsm+nkMEgYrIhLqRC1PnLV7l6s3iZcLa5KhO0AUAAIAkEewAAKAJnRyxe0EGX6kUhiq04FILL2YR8OpioxV2PpjBe4ypqqk7S/RTEkGwAwAApIZgBwAATWDE3jK6DgAApIZgBwAATWDE3jK6DgAApIZgBwAATWDE3jK6DgAApIZgBwAATWDE3jK6DgAApIZgBwAATWDE3jK6DgAApIZgBwAATWDE3jK6DgAApIZgBwAATWDE3jK6DgAApIZgBwAATWDE3jK6DgAApIZgBwAATWDE3jK6DgAApIZgBwAATWDE3jK6DgAApIZgBwAATWDE3jK6DgAApIZgBwAATYiO2L/25pDUPLbngiqqBl8Z+FQVxaO7L0iNNNPlolI9owsAAABJItgBAEATnBG7inSYJDU1iqqmsOgBAACQGoIdAAA0wRmxm6Kd8afojKmPKJf6+gcGSn2+/oFxU6uVykFF/0B5oD+oG9fZcJawKpgnm6p3BQAAQIcR7AAAoAnOiD2al58b3rkoyRTtNhY/rKGiE17WiVP4MQ4vmuE3i2StWUxLLxtGQLKnelcAAAB0GMEOAACa4IzYVdEkVWMmqZ+SfjNzV9Lpa/fUJJ8VpKgMWHiXaHhUTZVmJh9e1uHL8LUdqit0AQAAIEkEOwAAaIIzYjdFJyPpq294zyg1RZW8ebRqkQsVrpCcmtpIsCPDEQ5LpAcAAACSQrADAIAmOCN2k39/Yl7lVQNJw1/el+Lqg7DmzvKa31aJi1yYOi+EoXJxzSrykglrs0x1gi4AAAAkiWAHAABN6NyIPTZyEdyU0l8qNXhlhwhm8nAbCwAAAMEOAACawoi9ZXQdAABIDcEOAACawIi9ZXQdAABIDcEOAACawIi9ZXQdAABIDcEOAACawIi9ZXQdAABIDcEOAACawIi9ZXQdAABIDcEOAACawIi9ZXQdAABIDcEOAACawIi9ZXQdAABIDcEOAACawIi9ZXQdAABIDcEOAACawIi9ZXQdAABIDcEOAACawIi9ZXQdAABIDcEOAACawIi9ZXQdAABIDcEOAACaEB2xf+3NIal5bM8FVVQNvjLwqSqKR3dfkBpppstFpXpGFwAAAJJEsAMAgCY4I3YV6TBJamoUVU1h0QMAACA1BDsAAGiCM2I3RTvjT9EZUx8xPtDfp5TKUiyX+voHxtUkk/cypZK0kyZ+5UBJzWI31fyl6HnLetlSZz7GzOJ+clqqdwUAAECHEewAAKAJzog9mpefG965KMkU7Tahcqky1OAHKWKCHabWy+tZvKwTp6iYJZq1ZjEtvWyQS0PVrgAAAOg0gh0AADTBGbGrokmqxkxSPyX9ZuaupNPX7qlJHv/yCivWYMUgwnxsZWVeslpjs4SXdfhSvLZDdYUuAAAAJIlgBwAATXBG7KboZCR99Q3vGaWmqJI3j0VFHvyAQ2yQopHIhQpXSK7ZWdIW2wMAAABJINgBAEATnBG7yb8/Ma/yqoGk4S/vS3H1QVhzZ3nNb1shiFJYQYhyqdHLNEydN3djs3iZsDZNqhN0AQAAIEkEOwAAaELHRuxezEEJrrMwNaWSFZioHbnwghwe7zGmDc4SzuRJ8SIPgh0AACA1BDsAAGgCI/aW0XUAACA1BDsAAGgCI/aW0XUAACA1BDsAAGgCI/aW0XUAACA1BDsAAGgCI/aW0XUAACA1BDsAAGgCI/aW0XUAACA1BDsAAGgCI/aW0XUAACA1BDsAAGgCI/aW0XUAACA1BDsAAGgCI/aW0XUAACA1BDsAAGiCM2JfWn3wn94beeLHn9RO124v6RkKjGAHAABIDcEOAACa4IzYv1xYfuLHn9xbXjPprqSlVZUW/CSV0vLjqdtqlsIi2AEAAFJDsAMAgCY4I/ZZP9jxQJeq+u8jX/7JzjN7B6d1OW3lUl//wLguBGIra2i2vYtgBwAASA3BDgAAmtBCsENFOqTZD49N6qoYtUMJbQYaCHYAAIBiIdgBAEAT3GDHnTrBDhPpeLV8qWZMhGAHAABAxxDsAACgCdWCHQtLa9GnctiRjpnby5XBjvGB/j6lVC6XdNYryLSw7BWdqXbQweTtpalJNr9ZWTcJZraWE85tz+4s07SXTPzH1EawAwAApIZgBwAATYgNdqw9+N1/Pjy26Y2z/zJxS0+wIh3/pXxpYXlt4svF2YVlPU2US5XxAiv0ELLjC2ZqXF7+rRV9kMlBkMOLYDjL9KbqucOpYS6g2nv1zQc6PAQ7AABAagh2AADQhGrBjr/9b+OS2fTG2V9f8uId9jUdMnVp9YHkZ+wX0PqXTVjRBBN68PnRCZ+qtKfG5d2lOSoWLgU/WmHPG4Yv9NSYmIbXvt+NgDSBYAcAAEgNwQ4AAJoQG+x48DsvnPE3Qbzj9RNf2JEOsbTiBTuu2cEOnx+jqAw96FoVaJCcqrSmVs3bS3PYzczSg8rw4zxS6xUqK30yxY92xH1AIwh2AACA1BDsAACgCc6I/V+tB5SaeIdKJtIh7q+sxQY7RBDPsOIRJutFHFTOmmrHIfz4Q1DvCZbmsNqFc5tlelP1AsOp4WcHdHszW7MIdgAAgNQQ7AAAoAk1gh3CxDvsSIdY9IMd/3rHCnZ4EQbFClzokhdo8PSXSkHswppqzVsq6chDZGmVZLK3rMoWXqWOWgQfWBk6cRZq2vut+wf8Nk0g2AEAAFJDsAMAgCbEBjvsuMbS6oMDn1yza8S9ZRXssB5QWjwEOwAAQGoIdgAA0ARnxK6e2bG4snZ/ZU1+qnRv2Ut3VVpalfz/v7276Y3juPMAzGBzCbCXwF8gF30Ca9/GK+xhTwLkmwFDuqxPc/AlH2E/gABrJGvXEiwEgkXAFwOLXAbYW05KEJqSCdmEDW4QLBHIRhwgMQ1qbVpUtvplunu6m0NXk1OWhs+DAl1VXTUt1+3/Q/fM9hf7Ydncr7EsUf1ERq73WY8fgLADAEhG2AEAEVoV+/99d/gv//Hw/Fsf/t210Db/frL5D5PNf7y++U83HoxuPHjlxoN/fjtrL7/14b++89G3380/73HGCDsAgGSEHQAQoVuxHz57VjzK0WzVUx5Va73YcgYJOwCAZIQdABBBxT6YowMAkhF2AEAEFftgjg4ASEbYAQARVOyDOToAIBlhBwBEULEP5ugAgGSEHQAQYUHFvn9weOv+4yvr2xduPgwtdMIwTJaXzzxhBwCQjLADACIcVbFv7O5duvPo5bc+bLUwGS6Vi842YQcAkIywAwAi9FbsG7t7569tVgHHxdtbr767VQ3DpRcz75iO10aTnXJwcsIOACAZYQcAROhW7PsHh61nOs5d3QrzzZmw4Lj3WRYnC6ecO3w/C2465N8j7AAAkhF2AECEbsV+6/7jZq4RWjfsCC0sK9YfQdgBAHBqhB0AEKFbsV++t93KNXrDjivr28X6mZ3JaK0wnk7HZTcbhGv1OBu2rjaDhqrf/LTiUlPvlrwzLffV0cXsk0aTSbUrLC31/HuOu/mMsAMASEbYAQARuhX7hZsPW7lGb9gRlhXrS9PxfDJQZRBN1WTzal8//HdRztC7PXRmIUeWVtSTjQSj2lVo7q0uNfrTcWtDk7ADAEhG2AEAERaHHa/ceHDu6taTg6dhvposWjvsaGcJzfggH5WKySPCharfl0w09G5vTmaDLOMInzM3NxuEbqmzN7917ejMRdgBACQj7ACACN2K/cp69hrL6Ppm8UBHEDoXb9e/xlK0zmssmSIoyPOBVnxQPV3RCReO7Dc/raV3S3NydsvqhpnZgsX/nvrqMYQdAEAywg4AiNCt2G/df/zmB599+fVB6L929+NWxlG1o76gdJYfNOKDqpvlCJ1woZkuhOl6PlOlEfN6tzQ219ezySrYKK9XN8+mqr3l1rnPWUjYAQAkI+wAgAjdin3/4PCN9z99/b1PWulGs/X89GwWERQaKUQ5ynOGYDQez7KLxtXG3vG4DB06n9bW3ZJNZTcop6tts5WNLyg97t8zu5454v6BsAMASEbYAQAReiv2jd2989c2WwFH1cKlsKBc+hzJwo4iuUhD2AEAJCPsAIAIR1XsG7t7l+48asUcoYXJ5ElH9RRH4ahnLYQdAMDKEnYAQIQFFfv+weGt+48v39u+cPNhaFfWt8Ow/fbKc0TYAQCsLGEHAERQsQ/m6ACAZIQdABBBxT6YowMAkhF2AEAEFftgjg4ASEbYAQARVOyDOToAIBlhBwBEULEP5ugAgGSEHQAQYUHFXvway5X1F+XXWFITdgAAyQg7ACDCURX7xu7epTuPXn7rw1YLk+FSuehsE3YAAMkIOwAgQm/FvrG7d/7aZhVwXLy99eq7W9UwXDou75iO10aTnXKwqoQdAEAywg4AiNCt2PcPDlvPdJy7uhXmmzNhwcL3WRaEHYlzkCXeTtgBACQj7ACACN2K/db9x81cI7Ru2BFaWFas7yPsAAA4TcIOAIjQrdgv39tu5Rq9YceV9e1ifW1nMlrLjCaTKmKYjvOpYDxtjvJhvWU27mqtyMKL8ThM5aPO9hPfLoKwAwBIRtgBABG6FfuFmw9buUZv2BGWFetnsmShESm0nqfIQop8purM96fj1oZc9knz89ld6j1Hbh92uzjCDgAgGWEHAERYHHa8cuPBuatbTw6ehvlqsmjtsGNnMqrzg7lYoXyWops+1M9Z5LoPW2QLWrPHbT/J7SIJOwCAZIQdABChW7FfWc9eYxld3ywe6AhC5+Lt+tdYitZ+jaU37KjTiupyK31YGDn0LFi4/YS3iyTsAACSEXYAQIRuxX7r/uM3P/jsy68PQv+1ux+3Mo6qdb6gdNrzGksVNWRTnfQh31IN+tTbZhZuP+nt4gg7AIBkhB0AEKFbse8fHL7x/qevv/dJK91otv6fns3ChEzjC0rz3CObGo9nD36Uqxq5SKn/qYvZh5bXm+FFd/vJbxdB2AEAJCPsAIAIvRX7xu7e+WubrYCjauFSWFAuPcOEHQBAMsIOAIhwVMW+sbt36c6jVswRWphcWtJRP8SRO/GjF0sm7AAAkhF2AECEBRX7/sHhrfuPL9/bvnDzYWhX1rfDsOftlbNK2AEAJCPsAIAIKvbBHB0AkIywAwAiqNgHc3QAQDLCDgCIoGIfzNEBAMkIOwAggop9MEcHACQj7ACACCr2wRwdAJCMsAMAIiyo2ItfY7my7tdY+gk7AIBkhB0AEOGoin1jd+/SnUcvv/Vhq4XJcKlcdLYJOwCAZIQdABCht2Lf2N07f22zCjgu3t569d2tahguHZd3TMdro8lOOUgu0d2FHQBAMsIOAIjQrdj3Dw5bz3Scu7oV5pszYcHC91kWxA0JkohEdxd2AADJCDsAIEK3Yr91/3Ez1witG3aEFpYV6/sIOwAATpOwAwAidCv2y/e2W7lGb9hxZX27WF/bmYzWMqPJpMoUpuN8KhhPm6N8WG+ZjVua2UTVzzvT6l6z6OL0734MYQcAkIywAwAidCv2CzcftnKN3rAjLCvWz2RRQiNDqFOI3HxUUV5q9Kfj1oZc7+LQmX18dqd68rTvfgxhBwCQjLADACIsDjteufHg3NWtJwdPw3w1WbR22LEzGdWBwVyOUDw7MQsgGpfqBytyPU9X9GYTzclskO1byt2PIewAAJIRdgBAhG7FfmU9e41ldH2zeKAjCJ2Lt+tfYyla+zWW3rghCxSq5y1644bFGUNjcd1vTs4+Yil3P4awAwBIRtgBABG6Ffut+4/f/OCzL78+CP3X7n7cyjiq1vmC0mnPiyRVtpBNdeKGfEs16NMIJOq1jV319WzytO9+DGEHAJCMsAMAInQr9v2Dwzfe//T19z5ppRvN1v/Ts1l6kGl8RWiePGRT4/Hs0YtyVSOZKJWpxrzZZ66Nx7PPzAKL8HHldLVpGXdfSNgBACQj7ACACL0V+8bu3vlrm62Ao2rhUlhQLv0BZGFHkVz8sIQdAEAywg4AiHBUxb6xu3fpzqNWzBFamFxa0lE9xVE46lkLYQcAcOYIOwAgwoKKff/g8Nb9x5fvbV+4+TC0K+vbYdjz9kpqwg4A4MwRdgBABBX7YI4OAEhG2AEAEVTsgzk6ACAZYQcARFCxD+boAIBkhB0AEEHFPpijAwCSEXYAQAQV+2CODgBIRtgBABFU7IM5OgAgGWEHAERQsQ/m6ACAZIQdABBhmRX7dLw2muyUg5MJH7W2Np6Wo5mdyWjt1G4RTdgBACQj7ACACN2K/Sdvb4WZl249KobFgh9NPiqGwU/feRRmwrJyfKQThh3N7Vk/mP+0PAERdgAAZ4CwAwAitCr2IumoWphZMCxmjnbKYcd4PJ92hLnx+GS3OJHvcQIAAKdD2AEAEVoVezVsdvIrZaea7yoetMiU75vkacU0e9UkqDOJ/OWTwuzFlHauMdmpPyxfVE1Wr7KETylmZhvrj+287rIcC44CAOB0CTsAIEKrYu/2w9+f/WI7tGrYXNOnCiDywKLoZklEPVmmEXOTs8xibnt7Mvyn3ltOdBZPx9W2pfoeRwEAcDqEHQAQoVWxF8OqFTPVpeJvaL/5fD+0337xpLhUmlZPY3QCiHyQ5RRZwFE/eVFOzq2s+n2TZcbR2Zh9bEN9hyUqjqIcAAAsk7ADACK0KvZq2OqE9uPr2XeUVsOiZXsKdYoxCyTm0orZ5XpZpp1ZlHPd7VU///Dp7A7V/PzHptE+AQCApRF2AECEVsVe9X/5u6+KfrEgtI//9E0YPn1Wz3x9cJivzTXjiDqtmMUVdRiRTZaxRD3ZyCrqTdUnzvezBc1BtbhenUZxCOUAAGCZhB0AEOH0KvYssMjUv5qSJRFhkM82nruYLZxLJ/III9P4gZVyLttZhRpB2F99WGO+/livsQAAq0bYAQARVOyDOToAIBlhBwBEULEP5ugAgGSEHQAQQcU+mKMDAJIRdgBABBX7YI4OAEhG2AEAEVTsgzk6ACAZYQcARFCxD+boAIBkhB0AEEHFPpijAwCSEXYAQAQV+2CODgBIRtgBABFU7IM5OgAgGWEHAERQsQ/m6ACAZIQdABChW7E3Zx7+8UkxDC30q6t/M/nob29uhU6x7GwqjqIcAAAsk7ADACK0KvbQ/7f//t9qJnT+/M3T0ClSj2Iy+O7w2V++edqcOYPC//4ZPwEAIBlhBwBEaFXsv//q2/C3W8P/eT7aODh8ps5vHR0AwPIIOwAgQm/F3jvz77/+vOq/9M6jaw/+WAwr0/FaaTwtp3Ymo3xiNJmMw5+ducnGuhdS79EBACyDsAMAIvRW7M2Z4pmOn//qD+V4pncyN53lGln6UeQZeb5RTc5Sj+l41nsh9R4dAMAyCDsAIEJvxV7NFF/V8V//85di2NLeWD/akYcYO5NRHWbMMo76sY7ci/xsR+/RAQAsg7ADACL0VuzVTOgUP8JSaH5zR+srS/MUo3qMY3HY8WK/vVIJ//tzJwAAsDTCDgCI0KrYf/6rPxQzoRVxRrOFBcVvtRStmYPUr6dkcUbRy5706HuNpey96KozAQBYNmEHAEQYULH//qtv/3Pry3JQywONYDQeV090ZMlGPtf/BaVeYwEA+F6EHQAQIVHFvkJvr1SEHQBAMsIOAIiQpmJfnXdXGoQdAEAywg4AiLDMin1V3lc5grADAEhG2AEAEVTsgzk6ACAZYQcARFCxD+boAIBkhB0AEEHFPpijAwCSEXYAQAQV+2CODgBIRtgBABFU7IM5OgAgGWEHAERQsQ/m6ACAZIQdABBBxT6YowMAkhF2AEAEFftgjg4ASEbYAQARuhX7T97eCjMv3XpUDIsFP5p8VAyDn77zKMyEZeX4RKbjtdFkpxy8WIqTKQcAAMsk7ACACK2KvUg6qhZmFgyLmZMRdgAAHE/YAQARWhV7NWx28itlp5rvmo7XSuPpX/+6Mxnl/y3MMo35NfWoWDp/tdw2Ho/COB8+XxYcBQDA6RJ2AECEVsXe7Ye/P/vFdmjVsLmmTyPYmKUdjW5htqbuNDWv9lx+TnyPowAAOB3CDgCI0KrYi2HVipnqUvE3tN98vh/ab794UlwqZdFEoYoqiohjOq4Si541jTRj8dXnTHEU5QAAYJmEHQAQoVWxV8NWJ7QfX8++o7QaFi3bU6hfWwm9MqEoenPj9ppGnLH46vOnfQIAAEsj7ACACK2Kver/8ndfFf1iQWgf/+mbMHz6rJ75+uAwX5urcokss2jkF9l3bsxeYelZ04gzFl99/hSHUA4AAJZJ2AEAEU6vYs8iivwFlPF49iRHOTnLOnrXTIs3V7I13avCDgCAjLADACKo2AdzdABAMsIOAIigYh/M0QEAyQg7ACCCin0wRwcAJCPsAIAIKvbBHB0AkIywAwAiqNgHc3QAQDLCDgCIoGIfzNEBAMkIOwAggop9MEcHACQj7ACACEXFrg1u5TkCACyTsAMAIrRKdy22lecIALBMwg4AAABgpQg7AAAAgJUi7AAAAABWirADAAAAWCnCDgAAAGClCDsAAACAlSLsAAAAAFaKsAMAAABYKcIOAAAAYKUIOwAAAICVIuwAAAAAVoqwAwAAAFgpwg4AAABgpQg7AAAAgJUi7AAAAABWirADAAAAWCnCDgAAAGClCDsAAACAlSLsAAAAAFaKsAMAAABYKcIOAAAAYKUIOwAAAICVIuwAAAAAVoqwAwAAAFgpwg4AAABgpQg7AAAAgJUi7AAAAABWirADAAAAWCnCDgAAAGClCDsAAACAlSLsAAAAAFbK3bt3/x/qCfgrIohBRQAAAABJRU5ErkJggg==;" parent="1" vertex="1">
          <mxGeometry x="10" y="-760" width="1086.82" height="650" as="geometry" />
        </mxCell>
        <mxCell id="Y19SPU0DV10SrovvbSus-1" value="Таблица категорий статей" style="text;html=1;strokeColor=none;fillColor=none;align=center;verticalAlign=middle;whiteSpace=wrap;rounded=0;" vertex="1" parent="1">
          <mxGeometry x="690" y="-690" width="150" height="20" as="geometry" />
        </mxCell>
        <mxCell id="Y19SPU0DV10SrovvbSus-2" value="Таблица статей" style="text;html=1;strokeColor=none;fillColor=none;align=center;verticalAlign=middle;whiteSpace=wrap;rounded=0;" vertex="1" parent="1">
          <mxGeometry x="450" y="-690" width="120" height="20" as="geometry" />
        </mxCell>
        <mxCell id="Y19SPU0DV10SrovvbSus-3" value="Таблица содержащая в себе причины отклонения статьи модератором до момента пока статья не будет одобрена, после этого причины удаляются" style="text;html=1;strokeColor=none;fillColor=none;align=center;verticalAlign=middle;whiteSpace=wrap;rounded=0;" vertex="1" parent="1">
          <mxGeometry x="690" y="-240" width="240" height="60" as="geometry" />
        </mxCell>
        <mxCell id="Y19SPU0DV10SrovvbSus-4" value="Таблица содержащая в себе комментарии" style="text;html=1;strokeColor=none;fillColor=none;align=center;verticalAlign=middle;whiteSpace=wrap;rounded=0;" vertex="1" parent="1">
          <mxGeometry x="90" y="-690" width="240" height="20" as="geometry" />
        </mxCell>
        <mxCell id="Y19SPU0DV10SrovvbSus-5" value="Единая таблица лайков для комментариев, статей и юзеров, принимает в себя единовременно в каждую запись только 1 id из вышеобозначеных категорий, остальные будут пустыми" style="text;html=1;strokeColor=none;fillColor=none;align=center;verticalAlign=middle;whiteSpace=wrap;rounded=0;" vertex="1" parent="1">
          <mxGeometry x="90" y="-260" width="290" height="70" as="geometry" />
        </mxCell>
        <mxCell id="Y19SPU0DV10SrovvbSus-6" value="Таблица пользователей" style="text;html=1;strokeColor=none;fillColor=none;align=center;verticalAlign=middle;whiteSpace=wrap;rounded=0;" vertex="1" parent="1">
          <mxGeometry x="430" y="-120" width="140" height="20" as="geometry" />
        </mxCell>
      </root>
    </mxGraphModel>
  </diagram>
</mxfile>
